<svg width="573" height="385" viewBox="0 0 573 385" fill="none" xmlns="http://www.w3.org/2000/svg">
<path d="M274.819 335.306C274.806 347.684 274.801 359.801 274.776 371.918C274.767 376.102 274.297 376.379 270.442 374.409C231.587 354.558 192.736 334.7 153.887 314.838C143.174 309.36 132.553 303.718 121.727 298.443C116.569 295.929 114.642 292.232 114.659 287.038C114.754 258.533 114.532 230.025 114.831 201.522C115.266 159.943 114.94 118.365 115.066 76.7871C115.074 74.3466 115.092 71.9046 115.191 69.4664C115.298 66.8534 115.917 66.4598 118.432 67.5247C124.12 69.9335 129.785 72.3905 135.433 74.8804C171.01 90.5642 206.578 106.268 242.154 121.952C249.488 125.184 256.877 128.306 264.185 131.588C268 133.301 271.708 133.273 275.491 131.655C295.49 123.103 315.489 114.55 335.491 106.004C368.633 91.8462 401.787 77.7129 434.917 63.5327C459.573 52.9799 484.196 42.3599 508.843 31.7887C521.55 26.3384 534.276 20.9255 546.998 15.5052C549.603 14.3951 550.574 14.9452 550.701 17.6382C550.897 21.808 549.242 25.1331 545.338 27.3044C538.991 30.8351 532.082 33.2792 525.39 36.1319C497.406 48.0613 469.373 59.8924 441.362 71.766C400.704 89.0003 360.05 106.243 319.391 123.476C306.659 128.873 293.937 134.29 281.171 139.616C277.16 141.289 274.527 143.703 274.589 148.08C274.608 149.47 274.385 150.862 274.388 152.252C274.523 213.183 274.672 274.114 274.819 335.306ZM125.369 192.762C125.383 219.959 125.394 247.156 125.414 274.354C125.416 278.089 125.592 278.182 129.334 276.645C135.817 273.982 142.292 271.301 148.781 268.651C168.933 260.422 189.093 252.213 209.242 243.981C225.893 237.178 242.499 230.278 259.202 223.591C263.457 221.888 265.209 219.461 265.17 215.027C264.98 193.061 264.971 171.092 265.199 149.127C265.25 144.188 263.233 141.378 258.55 139.464C250.525 136.185 242.639 132.61 234.712 129.125C199.538 113.664 164.372 98.1885 129.195 82.7343C128.128 82.2657 127.082 81.6403 125.775 81.6975C125.645 81.9559 125.432 82.1806 125.432 82.4055C125.401 119.016 125.385 155.627 125.369 192.762Z" fill="black"/>
<path d="M389.323 253.954C390.773 256.964 391.266 259.916 391.252 263.026C391.184 278.624 391.293 294.222 391.168 309.819C391.119 316.022 389.438 321.879 385.576 327.065C383.096 330.395 379.904 332.779 375.654 333.867C371.214 335.003 367.472 333.444 365.482 329.568C363.572 325.85 363.235 321.831 363.223 317.835C363.177 302.153 362.769 286.459 363.673 270.795C364.091 263.547 366.918 257.047 373.177 252.254C375.553 250.434 378.329 249.403 381.331 249.074C385.238 248.647 387.575 250.772 389.323 253.954ZM372.876 276.528C372.873 288.464 372.852 300.399 372.885 312.334C372.89 314.326 372.748 316.335 373.249 318.311C373.576 319.599 373.777 321.078 375.455 321.31C377.022 321.527 378.356 320.723 379.3 319.558C380.942 317.53 381.462 315.138 381.485 312.667C381.542 306.656 381.535 300.644 381.532 294.633C381.526 285.05 381.536 275.467 381.452 265.885C381.438 264.266 381.345 262.187 379.155 261.897C377.077 261.622 375.482 262.929 374.571 264.725C374.214 265.427 373.964 266.188 373.762 266.945C372.968 269.927 373.046 272.987 372.876 276.528Z" fill="black"/>
<path d="M337.543 315.38C337.636 317.094 337.306 318.582 337.806 320.015C341.478 320.016 341.477 320.016 341.468 323.409C341.463 325.064 341.385 326.723 341.48 328.373C341.585 330.2 341.123 331.604 339.13 332.354C337.692 332.896 337.522 334.12 337.529 335.411C337.547 338.547 337.431 341.686 337.539 344.818C337.605 346.754 336.859 347.977 334.887 348.585C333.916 348.885 332.978 349.281 332.034 349.651C328.467 351.05 327.894 350.688 327.878 346.96C327.864 343.764 327.875 340.569 327.875 337.144C324.848 337.404 322.712 338.703 320.411 339.513C318.32 340.248 316.269 341.085 314.183 341.835C311.811 342.687 311.192 342.292 311.074 339.89C310.757 333.475 311.947 327.257 313.645 321.064C317.897 305.557 322.02 290.019 326.163 274.486C327.082 271.041 332.07 267.366 335.909 267.401C336.818 267.409 337.321 267.847 337.432 268.619C337.542 269.391 337.536 270.181 337.537 270.964C337.543 285.685 337.542 300.406 337.543 315.38ZM321.045 326.963C322.173 326.561 323.275 326.07 324.434 325.776C326.939 325.14 328.073 323.847 327.911 321.264C327.689 317.713 327.873 314.14 327.897 310.577C327.922 306.734 327.724 302.89 328.002 299.023C326.154 304.945 324.548 310.883 323.046 316.843C322.205 320.181 320.734 323.396 321.045 326.963Z" fill="black"/>
<path d="M480.115 111.075C482.145 105.495 484.808 100.584 490.353 97.6041C497.106 93.9751 501.682 95.5184 504.3 102.333C505.479 105.4 505.894 108.612 505.906 111.834C505.963 126.816 506.081 141.801 505.87 156.781C505.771 163.849 503.917 170.581 499.068 176.299C497.048 178.682 494.45 180.34 491.453 181.439C486.84 183.13 483.043 181.674 480.775 177.473C478.912 174.022 478.497 170.272 478.516 166.542C478.6 149.998 477.806 133.445 478.948 116.912C479.079 115.02 479.676 113.157 480.115 111.075ZM483.477 144.114C483.481 151.169 483.475 158.224 483.493 165.28C483.498 167.28 483.562 169.265 484.135 171.234C485.668 176.496 489.471 177.791 494.125 174.404C498.633 171.123 500.472 166.448 500.685 161.343C501.362 145.068 501.087 128.783 500.838 112.501C500.81 110.677 500.699 108.866 500.155 107.074C498.314 101.001 494.092 99.8561 489.064 104.139C488.519 104.603 488.055 105.164 487.62 105.725C484.85 109.301 483.58 113.359 483.539 117.722C483.457 126.344 483.49 134.967 483.477 144.114Z" fill="black"/>
<path d="M470.678 133.232C469.766 134.358 468.75 135.118 467.462 134.617C466.152 134.107 466.595 132.812 466.592 131.82C466.579 127.721 466.533 123.616 465.126 119.686C463.888 116.23 461.425 115.327 457.905 116.868C452.264 119.338 450.823 124.185 450.027 129.305C449.045 135.627 449.544 142.006 449.497 148.36C449.421 158.469 449.448 168.579 449.542 178.688C449.568 181.55 449.788 184.443 451.132 187.113C452.312 189.459 454.186 190.267 456.85 189.527C460.542 188.5 462.728 185.971 464.227 182.837C466.01 179.106 466.407 175.111 466.541 171.096C466.639 168.136 466.528 165.17 466.593 162.208C466.63 160.497 467.906 159.649 469.517 159.629C471.216 159.607 471.146 161.028 471.165 162.152C471.267 168.165 471.232 174.158 469.694 180.07C468.328 185.318 465.771 189.818 461.248 193.274C460.193 194.08 458.964 194.872 459.369 196.651C462.045 196.659 464.579 196.982 465.281 200.08C466.163 203.967 464.585 207.126 461.907 209.851C460.176 211.613 457.839 212.592 455.275 212.973C452.171 213.435 449.71 211.388 449.856 208.484C449.909 207.411 450.48 206.666 451.551 206.313C452.457 206.014 452.966 206.564 453.3 207.231C454.61 209.839 456.575 209.327 458.629 208.205C460.855 206.989 461.664 204.947 461.909 202.72C462.081 201.148 461.094 200.064 459.414 200.307C457.113 200.641 456.247 199.878 456.437 197.822C456.587 196.193 455.716 195.677 454.089 195.736C450.153 195.879 447.861 193.855 446.62 190.573C445.528 187.686 444.782 184.737 444.786 181.641C444.809 166.128 444.76 150.615 444.846 135.102C444.875 130.023 445.651 125.014 448.21 120.427C450.541 116.248 453.565 112.686 458.499 110.919C463.192 109.239 466.987 110.475 468.746 114.821C471.119 120.682 471.717 126.811 470.678 133.232Z" fill="black"/>
<path d="M427.654 142.751C429.914 156.124 432.145 169.271 434.381 182.418C435.346 188.092 436.322 193.764 437.299 199.436C437.373 199.865 437.535 200.282 437.591 200.713C437.828 202.541 436.462 203.197 434.971 203.56C433.196 203.992 433.022 202.656 432.812 201.532C432.095 197.671 431.319 193.818 430.749 189.938C430.482 188.123 429.75 187.662 427.989 188.38C423.462 190.226 418.923 192.048 414.38 193.859C413.096 194.37 412.712 195.291 412.537 196.525C411.851 201.357 411.071 206.178 410.281 210.997C410.156 211.756 409.948 212.572 409.516 213.205C408.852 214.177 407.845 215.091 406.514 214.543C405.276 214.034 405.921 212.881 406.053 211.973C407.976 198.696 409.865 185.415 411.843 172.144C413.513 160.935 415.294 149.741 417.008 138.538C417.351 136.299 417.727 134.056 417.885 131.803C418.057 129.352 419.182 127.776 421.693 126.884C424.254 125.974 424.911 126.225 425.355 128.858C426.122 133.412 426.871 137.969 427.654 142.751ZM428.177 174.263C426.054 162.043 423.93 149.823 421.807 137.603C421.642 137.604 421.477 137.605 421.313 137.606C418.783 154.494 416.254 171.381 413.641 188.826C416.819 187.537 419.358 186.495 421.906 185.475C429.628 182.386 429.63 182.39 428.177 174.263Z" fill="black"/>
<path d="M393.6 185.375C390.415 188.33 386.673 190.094 382.744 191.496C380.711 192.222 379.938 193.272 379.967 195.372C380.091 204.429 380.017 213.489 380.015 222.548C380.015 224.161 379.919 225.743 378.04 226.526C376.663 227.1 375.645 226.894 375.467 225.29C375.391 224.599 375.414 223.898 375.414 223.201C375.427 198.898 375.479 174.595 375.407 150.293C375.399 147.455 376.349 145.725 379.261 144.726C382.315 143.677 385.206 142.224 388.227 141.081C393.46 139.101 397.096 140.687 399.03 145.616C399.974 148.021 400.3 150.522 400.459 153.04C400.935 160.528 401.162 168.011 399.228 175.384C398.258 179.084 396.459 182.387 393.6 185.375ZM395.267 174.023C396.348 167.893 396.206 161.712 395.987 155.544C395.908 153.308 395.608 151.025 394.721 148.893C393.722 146.496 392.044 145.648 389.447 146.432C387.153 147.125 384.984 148.177 382.696 148.888C380.665 149.52 380.08 150.71 380.088 152.624C380.132 163.07 380.055 173.516 380.052 183.962C380.051 184.777 379.737 185.731 380.69 186.336C389.317 184.028 393.403 180.853 395.267 174.023Z" fill="black"/>
<path d="M351.798 188.454C353.844 189.982 355.608 191.608 357.685 192.724C367.433 197.961 368.959 206.405 368.093 215.742C367.639 220.636 366.241 225.345 363.537 229.615C361.373 233.033 358.256 235.446 354.195 236.698C350.742 237.763 347.682 236.852 345.973 234.008C342.982 229.03 342.798 223.518 343.042 218.008C343.111 216.465 344.505 215.46 346.146 215.544C347.843 215.63 347.58 217.098 347.6 218.197C347.652 221.067 347.414 223.954 348.224 226.776C349.486 231.167 352.446 232.293 356.644 230C358.479 228.998 359.799 227.57 360.717 225.806C364.094 219.317 364.475 212.585 362.394 205.714C361.687 203.38 359.978 201.603 357.926 200.166C355.616 198.547 353.218 197.038 350.907 195.42C346.465 192.307 344.072 188.023 343.612 182.959C343.024 176.49 343.5 170.085 346.26 163.978C348.342 159.369 351.544 155.841 356.608 153.907C360.546 152.403 363.565 153.248 365.633 156.661C368.068 160.683 368.42 165.101 368.161 169.579C368.074 171.084 367.146 172.387 365.352 172.263C363.553 172.138 363.818 170.535 363.724 169.383C363.526 166.959 363.639 164.524 362.603 162.19C361.178 158.978 359.424 158.234 356.092 159.577C353.758 160.518 352.069 162.053 350.973 164.176C347.718 170.48 347.222 177.035 349.001 183.775C349.454 185.491 350.38 187.005 351.798 188.454Z" fill="black"/>
<path d="M321.548 205.86C324.297 204.721 326.828 203.607 329.417 202.626C330.586 202.182 332.2 200.863 333.003 202.642C333.723 204.239 333.508 206.205 331.434 207.161C328.593 208.47 325.676 209.634 322.789 210.856C322.621 210.928 322.433 210.961 322.261 211.027C317.983 212.68 317.975 212.681 317.97 217.122C317.96 225.229 317.947 233.336 317.979 241.443C317.982 242.442 317.656 243.54 318.784 244.725C321.389 243.708 324.102 242.66 326.806 241.591C328.78 240.811 330.72 239.948 332.72 239.232C333.762 238.858 335.086 237.86 335.939 239.271C336.754 240.621 336.656 242.178 335.48 243.413C335.009 243.907 334.273 244.223 333.6 244.498C327.967 246.807 322.328 249.107 316.673 251.369C314.043 252.421 313.293 251.98 313.309 249.261C313.451 224.421 313.636 199.58 313.777 174.74C313.787 173.01 314.619 172.044 316.257 171.362C321.791 169.058 327.27 166.641 332.807 164.346C333.949 163.873 335.476 162.565 336.407 164.363C337.222 165.936 336.943 167.759 335.159 168.747C333.163 169.853 330.99 170.684 328.875 171.596C325.998 172.838 323.116 174.071 320.21 175.25C318.869 175.794 318.066 176.644 318.062 178.018C318.035 187.258 318.025 196.497 318.03 205.737C318.03 206.049 318.244 206.361 318.342 206.631C319.588 206.95 320.412 206.228 321.548 205.86Z" fill="black"/>
<path d="M355.929 329.068C356.02 332.109 355.957 334.975 356.061 337.837C356.133 339.791 355.209 340.867 353.312 341.548C346.877 343.858 346.724 345.38 346.811 337.497C346.818 336.889 346.808 336.281 346.807 335.673C346.805 331.558 350.275 328.282 354.692 328.292C355.078 328.292 355.462 328.683 355.929 329.068Z" fill="black"/>
</svg>
