<svg width="603" height="498" viewBox="0 0 603 498" fill="none" xmlns="http://www.w3.org/2000/svg">
<path d="M221.338 442.247C221.32 459.336 221.313 476.064 221.279 492.792C221.267 498.569 220.617 498.951 215.289 496.232C161.592 468.827 107.901 441.41 54.2126 413.99C39.4067 406.428 24.7283 398.639 9.76716 391.356C2.63902 387.886 -0.0237584 382.782 0.000159537 375.611C0.13141 336.258 -0.17534 296.902 0.236877 257.552C0.83821 200.15 0.388493 142.749 0.562482 85.3483C0.572701 81.9791 0.597528 78.6077 0.735469 75.2417C0.883297 71.6343 1.73862 71.0909 5.21398 72.5611C13.0747 75.8866 20.9041 79.2785 28.7096 82.716C77.8764 104.368 127.03 126.048 176.196 147.7C186.331 152.163 196.543 156.473 206.643 161.004C211.914 163.368 217.038 163.33 222.267 161.097C249.905 149.289 277.543 137.482 305.186 125.684C350.987 106.138 396.805 86.6264 442.591 67.0499C476.665 52.4812 510.694 37.8196 544.755 23.2255C562.316 15.7012 579.903 8.22835 597.484 0.745298C601.085 -0.787216 602.427 -0.0278218 602.602 3.69008C602.872 9.44661 600.586 14.0372 595.191 17.0348C586.419 21.9091 576.871 25.2833 567.623 29.2216C528.949 45.6907 490.209 62.0242 451.497 78.4164C395.308 102.209 339.125 126.013 282.936 149.805C265.341 157.255 247.759 164.734 230.116 172.087C224.573 174.397 220.935 177.73 221.02 183.772C221.047 185.691 220.738 187.612 220.742 189.532C220.93 273.65 221.135 357.768 221.338 442.247ZM14.8008 245.457C14.8198 283.005 14.8349 320.552 14.8625 358.1C14.8663 363.256 15.1094 363.384 20.2799 361.263C29.2397 357.586 38.188 353.885 47.1564 350.226C75.0049 338.867 102.866 327.533 130.712 316.168C153.723 306.777 176.672 297.251 199.756 288.019C205.636 285.668 208.057 282.318 208.004 276.196C207.741 245.871 207.729 215.541 208.043 185.217C208.113 178.399 205.327 174.52 198.854 171.877C187.765 167.351 176.866 162.415 165.911 157.604C117.301 136.259 68.7022 114.894 20.0881 93.5587C18.6142 92.9119 17.1678 92.0484 15.3616 92.1274C15.1816 92.4841 14.8881 92.7943 14.8879 93.1048C14.8448 143.648 14.8227 194.192 14.8008 245.457Z" fill="#FCC700"/>
<path d="M378.117 318.84C380.412 323.364 381.193 327.802 381.171 332.478C381.063 355.926 381.236 379.375 381.038 402.823C380.96 412.147 378.298 420.953 372.183 428.748C368.256 433.755 363.202 437.339 356.473 438.974C349.442 440.683 343.517 438.339 340.365 432.512C337.341 426.923 336.807 420.88 336.789 414.872C336.716 391.298 336.07 367.705 337.501 344.156C338.163 333.261 342.64 323.489 352.55 316.283C356.313 313.547 360.708 311.997 365.461 311.504C371.649 310.861 375.348 314.055 378.117 318.84ZM352.074 352.776C352.069 370.719 352.036 388.661 352.088 406.604C352.096 409.598 351.871 412.618 352.665 415.588C353.182 417.525 353.5 419.748 356.157 420.097C358.639 420.423 360.751 419.215 362.246 417.463C364.846 414.415 365.669 410.819 365.706 407.104C365.795 398.067 365.785 389.03 365.779 379.994C365.77 365.587 365.787 351.181 365.653 336.775C365.63 334.341 365.483 331.216 362.016 330.78C358.726 330.367 356.2 332.332 354.757 335.032C354.192 336.087 353.796 337.231 353.477 338.369C352.219 342.852 352.342 347.453 352.074 352.776Z" fill="#FCC700"/>
<path d="M296.127 411.182C296.274 413.759 295.752 415.997 296.543 418.15C302.358 418.151 302.356 418.151 302.341 423.253C302.333 425.741 302.21 428.235 302.36 430.715C302.526 433.462 301.796 435.573 298.64 436.7C296.362 437.514 296.093 439.355 296.104 441.296C296.133 446.01 295.949 450.728 296.12 455.437C296.225 458.348 295.044 460.186 291.921 461.101C290.383 461.551 288.898 462.146 287.403 462.703C281.756 464.806 280.849 464.261 280.822 458.657C280.8 453.853 280.818 449.049 280.818 443.9C276.025 444.292 272.643 446.245 269 447.461C265.688 448.567 262.441 449.825 259.138 450.952C255.381 452.234 254.402 451.639 254.214 448.029C253.712 438.385 255.597 429.038 258.286 419.728C265.019 396.415 271.546 373.056 278.107 349.705C279.562 344.527 287.461 339.001 293.54 339.054C294.978 339.066 295.775 339.724 295.95 340.886C296.125 342.047 296.116 343.234 296.117 344.41C296.126 366.541 296.125 388.672 296.127 411.182ZM270.003 428.595C271.789 427.991 273.534 427.253 275.37 426.811C279.336 425.855 281.131 423.911 280.875 420.028C280.524 414.69 280.815 409.318 280.852 403.961C280.893 398.184 280.579 392.406 281.019 386.593C278.093 395.495 275.55 404.421 273.172 413.381C271.84 418.399 269.511 423.233 270.003 428.595Z" fill="#FCC700"/>
<path d="M521.878 104.046C525.093 95.6578 529.31 88.2746 538.09 83.7951C548.782 78.3395 556.028 80.6596 560.174 90.9043C562.04 95.5154 562.698 100.343 562.717 105.187C562.807 127.71 562.994 150.237 562.661 172.757C562.503 183.382 559.567 193.503 551.889 202.1C548.691 205.681 544.577 208.173 539.831 209.825C532.527 212.368 526.515 210.179 522.923 203.863C519.974 198.676 519.316 193.038 519.346 187.431C519.48 162.56 518.223 137.676 520.031 112.822C520.238 109.977 521.184 107.175 521.878 104.046ZM527.203 153.714C527.208 164.32 527.199 174.927 527.228 185.533C527.236 188.541 527.337 191.524 528.245 194.484C530.672 202.395 536.693 204.341 544.062 199.25C551.201 194.318 554.113 187.289 554.449 179.615C555.521 155.148 555.087 130.667 554.693 106.19C554.648 103.447 554.472 100.725 553.611 98.0308C550.695 88.9024 544.01 87.1805 536.049 93.6196C535.186 94.3172 534.451 95.1596 533.763 96.0031C529.376 101.38 527.365 107.48 527.3 114.038C527.171 127 527.223 139.964 527.203 153.714Z" fill="#FCC700"/>
<path d="M506.936 137.355C505.493 139.048 503.883 140.191 501.844 139.437C499.77 138.67 500.471 136.725 500.466 135.233C500.445 129.071 500.374 122.9 498.145 116.992C496.185 111.796 492.285 110.438 486.711 112.755C477.78 116.468 475.497 123.755 474.237 131.451C472.681 140.957 473.473 150.546 473.397 160.098C473.277 175.295 473.319 190.494 473.468 205.691C473.511 209.992 473.859 214.341 475.986 218.356C477.855 221.883 480.822 223.098 485.041 221.984C490.886 220.442 494.348 216.639 496.721 211.927C499.545 206.319 500.173 200.313 500.385 194.278C500.541 189.828 500.366 185.369 500.468 180.916C500.527 178.343 502.546 177.069 505.098 177.038C507.788 177.005 507.678 179.141 507.708 180.831C507.868 189.871 507.813 198.88 505.377 207.769C503.215 215.657 499.167 222.423 492.004 227.618C490.333 228.829 488.389 230.02 489.029 232.694C493.267 232.707 497.279 233.193 498.391 237.849C499.786 243.693 497.289 248.442 493.049 252.538C490.307 255.187 486.606 256.659 482.547 257.232C477.632 257.926 473.735 254.85 473.965 250.484C474.051 248.87 474.955 247.751 476.65 247.22C478.085 246.77 478.89 247.597 479.42 248.599C481.493 252.52 484.605 251.751 487.857 250.064C491.383 248.236 492.663 245.166 493.05 241.818C493.324 239.455 491.76 237.826 489.1 238.191C485.458 238.692 484.086 237.545 484.387 234.455C484.625 232.006 483.245 231.231 480.669 231.32C474.437 231.534 470.806 228.491 468.842 223.558C467.113 219.217 465.931 214.783 465.938 210.13C465.975 186.809 465.896 163.487 466.033 140.166C466.078 132.531 467.308 125.001 471.359 118.106C475.05 111.823 479.839 106.468 487.652 103.812C495.083 101.286 501.092 103.145 503.878 109.678C507.634 118.489 508.581 127.703 506.936 137.355Z" fill="#FCC700"/>
<path d="M438.811 151.666C442.389 171.77 445.921 191.534 449.462 211.297C450.991 219.827 452.535 228.354 454.082 236.881C454.2 237.527 454.456 238.154 454.545 238.801C454.92 241.549 452.757 242.535 450.396 243.081C447.585 243.731 447.31 241.723 446.978 240.032C445.842 234.229 444.613 228.435 443.711 222.603C443.288 219.874 442.129 219.182 439.341 220.261C432.172 223.035 424.986 225.774 417.792 228.497C415.759 229.266 415.151 230.651 414.873 232.506C413.787 239.77 412.552 247.017 411.301 254.261C411.103 255.403 410.774 256.629 410.09 257.58C409.039 259.042 407.444 260.416 405.337 259.593C403.377 258.826 404.398 257.094 404.606 255.729C407.651 235.769 410.644 215.803 413.775 195.853C416.42 179.003 419.239 162.174 421.954 145.332C422.496 141.966 423.091 138.595 423.342 135.208C423.614 131.523 425.395 129.153 429.371 127.812C433.426 126.445 434.468 126.822 435.17 130.78C436.385 137.627 437.571 144.477 438.811 151.666ZM439.639 199.038C436.276 180.668 432.914 162.297 429.552 143.927C429.291 143.928 429.03 143.93 428.77 143.931C424.764 169.318 420.759 194.705 416.622 220.931C421.654 218.993 425.674 217.427 429.709 215.894C441.936 211.251 441.939 211.256 439.639 199.038Z" fill="#FCC700"/>
<path d="M384.889 215.743C379.846 220.186 373.92 222.838 367.699 224.946C364.48 226.036 363.255 227.615 363.301 230.771C363.499 244.388 363.381 258.008 363.379 271.626C363.378 274.051 363.227 276.43 360.251 277.607C358.07 278.47 356.458 278.16 356.177 275.748C356.056 274.71 356.093 273.655 356.093 272.608C356.113 236.073 356.195 199.538 356.082 163.004C356.069 158.737 357.573 156.137 362.183 154.634C367.019 153.058 371.598 150.873 376.381 149.155C384.667 146.178 390.425 148.563 393.487 155.973C394.981 159.588 395.497 163.348 395.75 167.134C396.503 178.39 396.862 189.64 393.801 200.724C392.265 206.286 389.415 211.252 384.889 215.743ZM387.529 198.678C389.24 189.463 389.016 180.171 388.669 170.898C388.543 167.536 388.068 164.104 386.663 160.9C385.082 157.295 382.425 156.021 378.313 157.2C374.681 158.241 371.247 159.822 367.623 160.892C364.406 161.842 363.48 163.63 363.493 166.508C363.562 182.212 363.442 197.916 363.436 213.62C363.435 214.844 362.937 216.278 364.446 217.189C378.106 213.719 384.577 208.946 387.529 198.678Z" fill="#FCC700"/>
<path d="M318.697 220.373C321.937 222.67 324.73 225.113 328.019 226.791C343.455 234.664 345.872 247.359 344.501 261.395C343.782 268.752 341.568 275.831 337.287 282.251C333.86 287.39 328.924 291.017 322.493 292.899C317.026 294.5 312.181 293.131 309.474 288.855C304.738 281.372 304.447 273.085 304.834 264.802C304.942 262.482 307.149 260.971 309.749 261.097C312.435 261.226 312.019 263.434 312.051 265.086C312.133 269.401 311.756 273.741 313.039 277.982C315.037 284.584 319.724 286.277 326.372 282.829C329.276 281.323 331.367 279.176 332.82 276.525C338.168 266.769 338.771 256.649 335.476 246.32C334.357 242.811 331.651 240.14 328.402 237.979C324.744 235.546 320.946 233.278 317.288 230.844C310.254 226.165 306.465 219.724 305.736 212.111C304.805 202.386 305.559 192.758 309.929 183.577C313.226 176.648 318.296 171.344 326.315 168.436C332.549 166.175 337.33 167.446 340.604 172.578C344.461 178.623 345.018 185.265 344.608 191.997C344.471 194.26 343 196.218 340.161 196.031C337.312 195.844 337.731 193.435 337.582 191.702C337.268 188.059 337.448 184.398 335.808 180.889C333.551 176.06 330.773 174.942 325.498 176.961C321.802 178.376 319.128 180.683 317.392 183.875C312.238 193.352 311.452 203.206 314.269 213.339C314.986 215.918 316.453 218.193 318.697 220.373Z" fill="#FCC700"/>
<path d="M270.8 246.539C275.151 244.826 279.16 243.152 283.259 241.677C285.111 241.01 287.667 239.026 288.937 241.702C290.077 244.103 289.738 247.057 286.453 248.494C281.955 250.462 277.335 252.212 272.765 254.05C272.498 254.158 272.201 254.207 271.928 254.306C265.154 256.792 265.141 256.792 265.133 263.469C265.118 275.656 265.098 287.844 265.147 300.031C265.153 301.533 264.637 303.185 266.422 304.965C270.548 303.437 274.844 301.861 279.125 300.255C282.251 299.081 285.322 297.784 288.489 296.707C290.14 296.146 292.236 294.645 293.586 296.767C294.877 298.795 294.722 301.136 292.859 302.993C292.114 303.735 290.948 304.21 289.883 304.624C280.963 308.096 272.034 311.553 263.079 314.954C258.916 316.535 257.728 315.873 257.753 311.785C257.978 274.441 258.271 237.098 258.494 199.755C258.509 197.154 259.827 195.702 262.421 194.676C271.183 191.214 279.86 187.58 288.628 184.13C290.435 183.419 292.853 181.452 294.327 184.155C295.618 186.521 295.175 189.26 292.351 190.746C289.19 192.408 285.75 193.658 282.401 195.029C277.846 196.896 273.283 198.75 268.68 200.523C266.557 201.341 265.286 202.618 265.28 204.684C265.237 218.574 265.221 232.464 265.228 246.354C265.228 246.823 265.567 247.293 265.723 247.698C267.696 248.177 269 247.093 270.8 246.539Z" fill="#FCC700"/>
<path d="M325.239 431.76C325.383 436.331 325.283 440.641 325.449 444.942C325.562 447.879 324.098 449.498 321.094 450.522C310.906 453.993 310.663 456.282 310.801 444.432C310.812 443.518 310.796 442.603 310.795 441.689C310.792 435.504 316.287 430.579 323.281 430.593C323.891 430.594 324.499 431.181 325.239 431.76Z" fill="#FCC700"/>
</svg>
