<svg width="64" height="61" viewBox="0 0 64 61" fill="none" xmlns="http://www.w3.org/2000/svg">
<path d="M15 0.5H49C57.0081 0.5 63.5 6.99187 63.5 15V45.916C63.4998 53.924 57.008 60.416 49 60.416H15C6.99199 60.416 0.500192 53.924 0.5 45.916V15L0.504883 14.626C0.703273 6.79071 7.11692 0.5 15 0.5Z" fill="#FCC700" stroke="black"/>
<path d="M27.4199 44.0259C27.4187 45.1662 27.4182 46.2823 27.4158 47.3985C27.4149 47.7839 27.3693 47.8094 26.9952 47.628C23.2248 45.7994 19.4548 43.9701 15.685 42.1404C14.6454 41.6359 13.6147 41.1161 12.5642 40.6302C12.0637 40.3986 11.8767 40.0581 11.8784 39.5796C11.8876 36.9538 11.8661 34.3278 11.8951 31.7022C11.9373 27.872 11.9057 24.042 11.9179 20.2119C11.9186 19.9871 11.9204 19.7622 11.9301 19.5376C11.9404 19.2969 12.0005 19.2606 12.2445 19.3587C12.7965 19.5806 13.3462 19.8069 13.8943 20.0363C17.3466 21.481 20.7979 22.9276 24.2503 24.3723C24.9619 24.6701 25.6789 24.9577 26.3881 25.26C26.7582 25.4178 27.118 25.4153 27.4851 25.2662C29.4258 24.4784 31.3664 23.6905 33.3074 22.9033C36.5234 21.5991 39.7406 20.2972 42.9555 18.991C45.348 18.0189 47.7374 17.0406 50.1291 16.0668C51.3621 15.5647 52.597 15.0661 53.8315 14.5668C54.0843 14.4646 54.1785 14.5152 54.1908 14.7633C54.2098 15.1474 54.0493 15.4537 53.6705 15.6537C53.0545 15.979 52.3841 16.2041 51.7348 16.4669C49.0192 17.5658 46.299 18.6556 43.5808 19.7494C39.6355 21.337 35.6905 22.9253 31.7451 24.5128C30.5096 25.0099 29.2751 25.5089 28.0363 25.9995C27.6471 26.1537 27.3916 26.3761 27.3976 26.7792C27.3995 26.9072 27.3778 27.0355 27.3781 27.1636C27.3913 32.7763 27.4057 38.3891 27.4199 44.0259ZM12.9177 30.8952C12.919 33.4005 12.9201 35.9058 12.922 38.4112C12.9223 38.7552 12.9393 38.7638 13.3024 38.6222C13.9315 38.3769 14.5598 38.1299 15.1896 37.8858C17.145 37.1278 19.1013 36.3716 21.0565 35.6133C22.6723 34.9867 24.2836 34.351 25.9045 33.7351C26.3174 33.5782 26.4874 33.3547 26.4837 32.9461C26.4652 30.9227 26.4644 28.899 26.4864 26.8756C26.4914 26.4207 26.2957 26.1619 25.8412 25.9856C25.0625 25.6835 24.2973 25.3542 23.528 25.0332C20.1149 23.6089 16.7024 22.1834 13.2889 20.7598C13.1854 20.7166 13.0839 20.659 12.957 20.6643C12.9444 20.6881 12.9238 20.7088 12.9238 20.7295C12.9208 24.102 12.9192 27.4745 12.9177 30.8952Z" fill="black"/>
<path d="M38.5308 36.5322C38.6715 36.8094 38.7193 37.0814 38.718 37.3679C38.7113 38.8047 38.722 40.2416 38.7098 41.6783C38.705 42.2497 38.5419 42.7892 38.1672 43.2669C37.9265 43.5737 37.6168 43.7933 37.2044 43.8935C36.7735 43.9982 36.4104 43.8546 36.2173 43.4976C36.032 43.155 35.9992 42.7848 35.9981 42.4167C35.9936 40.9721 35.9541 39.5265 36.0418 38.0835C36.0823 37.4159 36.3567 36.8171 36.964 36.3756C37.1946 36.2079 37.464 36.1129 37.7552 36.0827C38.1344 36.0433 38.3611 36.239 38.5308 36.5322ZM36.9348 38.6117C36.9345 39.7111 36.9325 40.8106 36.9357 41.91C36.9362 42.0935 36.9224 42.2785 36.971 42.4605C37.0027 42.5792 37.0222 42.7154 37.1851 42.7368C37.3372 42.7568 37.4666 42.6828 37.5582 42.5754C37.7175 42.3886 37.7679 42.1683 37.7702 41.9406C37.7757 41.3869 37.7751 40.8332 37.7747 40.2794C37.7741 39.3967 37.7752 38.5139 37.767 37.6312C37.7656 37.4821 37.7566 37.2906 37.5441 37.2639C37.3425 37.2385 37.1877 37.3589 37.0992 37.5244C37.0646 37.5891 37.0404 37.6592 37.0208 37.7289C36.9437 38.0035 36.9512 38.2855 36.9348 38.6117Z" fill="black"/>
<path d="M33.5061 42.1907C33.5152 42.3486 33.4831 42.4857 33.5316 42.6177C33.888 42.6178 33.8879 42.6178 33.8869 42.9303C33.8865 43.0828 33.8789 43.2356 33.8881 43.3876C33.8983 43.5559 33.8535 43.6853 33.6601 43.7544C33.5205 43.8042 33.504 43.917 33.5048 44.0359C33.5065 44.3248 33.4952 44.6139 33.5057 44.9025C33.5121 45.0808 33.4398 45.1935 33.2484 45.2495C33.1542 45.2771 33.0631 45.3136 32.9715 45.3477C32.6254 45.4766 32.5698 45.4432 32.5682 45.0998C32.5668 44.8054 32.5679 44.511 32.5679 44.1955C32.2742 44.2196 32.067 44.3392 31.8437 44.4138C31.6407 44.4815 31.4418 44.5586 31.2393 44.6277C31.0091 44.7062 30.9491 44.6698 30.9376 44.4486C30.9068 43.8576 31.0223 43.2849 31.1871 42.7144C31.5997 41.2859 31.9998 39.8545 32.4018 38.4237C32.491 38.1064 32.975 37.7678 33.3476 37.771C33.4357 37.7718 33.4846 37.8121 33.4953 37.8833C33.506 37.9544 33.5055 38.0272 33.5055 38.0992C33.5061 39.4553 33.506 40.8114 33.5061 42.1907ZM31.9052 43.2577C32.0146 43.2207 32.1216 43.1755 32.2341 43.1484C32.4771 43.0898 32.5871 42.9707 32.5715 42.7328C32.5499 42.4057 32.5677 42.0765 32.5701 41.7483C32.5725 41.3942 32.5533 41.0402 32.5803 40.684C32.4009 41.2295 32.2451 41.7765 32.0994 42.3255C32.0178 42.633 31.875 42.9292 31.9052 43.2577Z" fill="black"/>
<path d="M47.3411 23.3705C47.5381 22.8565 47.7966 22.4041 48.3346 22.1296C48.9899 21.7953 49.4339 21.9375 49.688 22.5652C49.8024 22.8478 49.8427 23.1436 49.8439 23.4404C49.8494 24.8206 49.8609 26.2009 49.8404 27.5808C49.8308 28.2319 49.6508 28.852 49.1803 29.3788C48.9843 29.5983 48.7322 29.751 48.4414 29.8522C47.9937 30.008 47.6253 29.8739 47.4052 29.4869C47.2244 29.169 47.1841 28.8236 47.186 28.48C47.1942 26.956 47.1171 25.4312 47.2279 23.9082C47.2406 23.734 47.2986 23.5623 47.3411 23.3705ZM47.6674 26.4139C47.6678 27.0638 47.6672 27.7138 47.669 28.3637C47.6695 28.548 47.6756 28.7308 47.7313 28.9122C47.88 29.3969 48.249 29.5162 48.7006 29.2042C49.1381 28.902 49.3166 28.4713 49.3372 28.001C49.4029 26.5018 49.3763 25.0017 49.3521 23.5019C49.3494 23.3338 49.3386 23.167 49.2858 23.0019C49.1071 22.4426 48.6974 22.3371 48.2095 22.7316C48.1567 22.7744 48.1116 22.826 48.0694 22.8777C47.8006 23.2071 47.6774 23.5809 47.6734 23.9828C47.6655 24.7771 47.6687 25.5714 47.6674 26.4139Z" fill="black"/>
<path d="M46.4255 25.4114C46.3371 25.5151 46.2385 25.5851 46.1135 25.539C45.9864 25.492 46.0294 25.3728 46.0291 25.2813C46.0278 24.9038 46.0234 24.5256 45.8868 24.1636C45.7667 23.8452 45.5277 23.762 45.1861 23.904C44.6388 24.1315 44.4989 24.578 44.4217 25.0496C44.3263 25.6321 44.3748 26.2197 44.3702 26.8049C44.3629 27.7362 44.3654 28.6675 44.3746 29.5987C44.3771 29.8623 44.3985 30.1288 44.5288 30.3748C44.6434 30.5909 44.8252 30.6653 45.0838 30.5971C45.442 30.5026 45.6541 30.2695 45.7995 29.9808C45.9726 29.6372 46.0111 29.2692 46.0241 28.8994C46.0337 28.6267 46.0229 28.3534 46.0292 28.0806C46.0328 27.9229 46.1565 27.8449 46.3129 27.843C46.4777 27.8409 46.471 27.9719 46.4728 28.0754C46.4827 28.6294 46.4793 29.1814 46.33 29.726C46.1975 30.2094 45.9494 30.6239 45.5105 30.9423C45.4081 31.0165 45.2889 31.0895 45.3282 31.2533C45.5878 31.2541 45.8337 31.2839 45.9019 31.5692C45.9874 31.9273 45.8344 32.2183 45.5745 32.4693C45.4065 32.6316 45.1797 32.7218 44.9309 32.7569C44.6297 32.7995 44.3909 32.6109 44.405 32.3434C44.4102 32.2445 44.4656 32.176 44.5695 32.1434C44.6575 32.1159 44.7068 32.1665 44.7393 32.2279C44.8663 32.4682 45.0571 32.4211 45.2564 32.3177C45.4724 32.2056 45.5509 32.0176 45.5746 31.8124C45.5914 31.6676 45.4955 31.5678 45.3325 31.5902C45.1093 31.6209 45.0253 31.5506 45.0437 31.3612C45.0583 31.2112 44.9737 31.1637 44.8158 31.1691C44.4339 31.1823 44.2114 30.9958 44.091 30.6935C43.9851 30.4275 43.9126 30.1558 43.9131 29.8707C43.9153 28.4417 43.9105 27.0126 43.9189 25.5836C43.9217 25.1158 43.997 24.6544 44.2453 24.2319C44.4715 23.8469 44.765 23.5188 45.2438 23.356C45.6992 23.2012 46.0674 23.3151 46.2381 23.7154C46.4683 24.2553 46.5264 24.8199 46.4255 25.4114Z" fill="black"/>
<path d="M42.2503 26.2884C42.4696 27.5203 42.686 28.7313 42.903 29.9423C42.9967 30.465 43.0914 30.9875 43.1862 31.51C43.1934 31.5495 43.2091 31.588 43.2145 31.6276C43.2375 31.796 43.105 31.8564 42.9603 31.8899C42.788 31.9297 42.7711 31.8066 42.7508 31.703C42.6812 31.3474 42.6059 30.9925 42.5506 30.6351C42.5247 30.4678 42.4536 30.4255 42.2828 30.4916C41.8435 30.6616 41.4031 30.8294 40.9622 30.9962C40.8376 31.0434 40.8003 31.1282 40.7833 31.2419C40.7167 31.687 40.6411 32.1311 40.5644 32.5749C40.5523 32.6449 40.5321 32.72 40.4902 32.7783C40.4258 32.8679 40.328 32.9521 40.1989 32.9017C40.0788 32.8547 40.1413 32.7486 40.1541 32.6649C40.3408 31.4418 40.5241 30.2184 40.716 28.996C40.8781 27.9634 41.0509 26.9322 41.2172 25.9002C41.2505 25.694 41.2869 25.4874 41.3023 25.2799C41.319 25.0541 41.4281 24.9089 41.6718 24.8267C41.9203 24.7429 41.9841 24.766 42.0272 25.0086C42.1016 25.4281 42.1743 25.8479 42.2503 26.2884ZM42.301 29.1911C42.095 28.0655 41.8889 26.9398 41.6829 25.8141C41.6669 25.8142 41.6509 25.8143 41.6349 25.8144C41.3895 27.37 41.144 28.9256 40.8905 30.5326C41.1989 30.4139 41.4452 30.3179 41.6925 30.224C42.4418 29.9394 42.442 29.9398 42.301 29.1911Z" fill="black"/>
<path d="M38.946 30.2147C38.637 30.487 38.2738 30.6494 37.8926 30.7786C37.6953 30.8455 37.6203 30.9422 37.6231 31.1356C37.6352 31.97 37.628 32.8045 37.6278 33.639C37.6278 33.7876 37.6185 33.9333 37.4362 34.0055C37.3025 34.0583 37.2037 34.0394 37.1865 33.8916C37.1791 33.828 37.1813 33.7633 37.1814 33.6992C37.1826 31.4605 37.1876 29.2218 37.1807 26.9831C37.1799 26.7217 37.2721 26.5623 37.5546 26.4703C37.8509 26.3737 38.1315 26.2398 38.4247 26.1345C38.9324 25.9521 39.2853 26.0983 39.473 26.5523C39.5645 26.7738 39.5962 27.0042 39.6117 27.2362C39.6578 27.9259 39.6798 28.6152 39.4922 29.2944C39.3981 29.6352 39.2234 29.9395 38.946 30.2147ZM39.1078 29.1691C39.2127 28.6044 39.199 28.035 39.1777 27.4668C39.17 27.2608 39.1409 27.0505 39.0548 26.8542C38.9579 26.6333 38.7951 26.5552 38.543 26.6275C38.3205 26.6912 38.11 26.7882 37.8879 26.8537C37.6908 26.9119 37.6341 27.0215 37.6348 27.1978C37.6391 28.1601 37.6317 29.1224 37.6314 30.0846C37.6313 30.1596 37.6008 30.2475 37.6933 30.3033C38.5304 30.0907 38.9269 29.7982 39.1078 29.1691Z" fill="black"/>
<path d="M34.8897 30.4983C35.0883 30.639 35.2594 30.7888 35.461 30.8916C36.4069 31.374 36.5551 32.1519 36.471 33.012C36.427 33.4628 36.2913 33.8965 36.0289 34.2899C35.8189 34.6048 35.5165 34.8271 35.1223 34.9424C34.7873 35.0405 34.4904 34.9566 34.3245 34.6946C34.0342 34.2361 34.0164 33.7283 34.0401 33.2207C34.0468 33.0786 34.182 32.986 34.3414 32.9937C34.506 33.0016 34.4805 33.1369 34.4824 33.2381C34.4874 33.5025 34.4643 33.7685 34.543 34.0284C34.6654 34.4329 34.9527 34.5366 35.3601 34.3254C35.538 34.2331 35.6662 34.1015 35.7552 33.9391C36.0829 33.3413 36.1199 32.7212 35.918 32.0882C35.8494 31.8732 35.6835 31.7096 35.4845 31.5772C35.2603 31.428 35.0275 31.2891 34.8034 31.1399C34.3723 30.8532 34.1401 30.4585 34.0954 29.9921C34.0383 29.3962 34.0846 28.8062 34.3524 28.2436C34.5544 27.819 34.8652 27.4941 35.3565 27.3159C35.7386 27.1773 36.0316 27.2552 36.2322 27.5696C36.4686 27.9401 36.5028 28.3471 36.4776 28.7596C36.4692 28.8983 36.3791 29.0182 36.2051 29.0068C36.0305 28.9953 36.0561 28.8477 36.047 28.7415C36.0278 28.5183 36.0388 28.2939 35.9383 28.0789C35.8 27.783 35.6297 27.7145 35.3065 27.8382C35.08 27.9249 34.9161 28.0663 34.8097 28.2619C34.4939 28.8426 34.4457 29.4464 34.6184 30.0673C34.6623 30.2253 34.7522 30.3648 34.8897 30.4983Z" fill="black"/>
<path d="M31.9543 32.1017C32.221 31.9968 32.4667 31.8942 32.7179 31.8038C32.8314 31.7629 32.988 31.6414 33.0658 31.8053C33.1357 31.9524 33.1149 32.1335 32.9136 32.2215C32.638 32.3421 32.3549 32.4493 32.0748 32.562C32.0584 32.5686 32.0402 32.5716 32.0235 32.5777C31.6084 32.73 31.6076 32.73 31.6071 33.1391C31.6062 33.8859 31.6049 34.6327 31.608 35.3795C31.6083 35.4715 31.5767 35.5727 31.6861 35.6818C31.9389 35.5882 32.2022 35.4916 32.4646 35.3932C32.6561 35.3213 32.8443 35.2418 33.0384 35.1758C33.1396 35.1414 33.268 35.0494 33.3508 35.1795C33.4299 35.3038 33.4204 35.4472 33.3062 35.561C33.2606 35.6065 33.1891 35.6356 33.1239 35.661C32.5772 35.8737 32.03 36.0855 31.4812 36.2939C31.2261 36.3908 31.1533 36.3502 31.1548 36.0997C31.1686 33.8115 31.1866 31.5232 31.2002 29.235C31.2012 29.0757 31.2819 28.9866 31.4409 28.9238C31.9779 28.7116 32.5096 28.489 33.0469 28.2776C33.1576 28.234 33.3059 28.1135 33.3962 28.2791C33.4753 28.4241 33.4482 28.5919 33.275 28.683C33.0814 28.7848 32.8705 28.8614 32.6653 28.9454C32.3861 29.0598 32.1065 29.1734 31.8245 29.2821C31.6943 29.3322 31.6165 29.4105 31.6161 29.537C31.6134 30.3881 31.6125 31.2393 31.6129 32.0904C31.6129 32.1192 31.6337 32.1479 31.6432 32.1728C31.7641 32.2021 31.8441 32.1357 31.9543 32.1017Z" fill="black"/>
<path d="M35.2904 43.4514C35.2992 43.7315 35.2931 43.9956 35.3032 44.2592C35.3101 44.4391 35.2205 44.5383 35.0364 44.6011C34.412 44.8138 34.3971 44.954 34.4056 44.2279C34.4062 44.1719 34.4052 44.1158 34.4052 44.0598C34.405 43.6808 34.7417 43.379 35.1704 43.3799C35.2078 43.38 35.245 43.4159 35.2904 43.4514Z" fill="black"/>
</svg>
