<svg width="78" height="105" viewBox="0 0 78 105" fill="none" xmlns="http://www.w3.org/2000/svg">
<path fill-rule="evenodd" clip-rule="evenodd" d="M50.6831 21.4578C50.6831 22.6699 49.6994 23.6495 48.4896 23.6495H30.3482C29.1343 23.6495 28.1565 22.6699 28.1565 21.4578V3.31865C28.1565 2.10477 29.1343 1.12695 30.3482 1.12695H48.4896C49.6994 1.12695 50.6831 2.10477 50.6831 3.31865V21.4578Z" fill="#FCC700"/>
<path fill-rule="evenodd" clip-rule="evenodd" d="M77.7126 21.4578C77.7126 22.6699 76.7284 23.6495 75.5186 23.6495H57.3794C56.1656 23.6495 55.1877 22.6699 55.1877 21.4578V3.31865C55.1877 2.10477 56.1656 1.12695 57.3794 1.12695H75.5186C76.7284 1.12695 77.7126 2.10477 77.7126 3.31865V21.4578Z" fill="#FCC700"/>
<path fill-rule="evenodd" clip-rule="evenodd" d="M77.7126 75.5178C77.7126 76.73 76.7284 77.7096 75.5186 77.7096H57.3794C56.1656 77.7096 55.1877 76.73 55.1877 75.5178V57.3788C55.1877 56.1672 56.1656 55.1853 57.3794 55.1853H75.5186C76.7284 55.1853 77.7126 56.1672 77.7126 57.3788V75.5178Z" fill="#FCC700"/>
<path fill-rule="evenodd" clip-rule="evenodd" d="M23.6523 48.4713C23.6523 49.6829 22.6722 50.6631 21.4606 50.6631H3.31915C2.10754 50.6631 1.12744 49.6829 1.12744 48.4713V30.3316C1.12744 29.12 2.10754 28.1382 3.31915 28.1382H21.4606C22.6722 28.1382 23.6523 29.12 23.6523 30.3316V48.4713Z" fill="#FCC700"/>
<path fill-rule="evenodd" clip-rule="evenodd" d="M50.6831 48.4713C50.6831 49.6829 49.6994 50.6631 48.4896 50.6631H30.3482C29.1343 50.6631 28.1565 49.6829 28.1565 48.4713V30.3316C28.1565 29.12 29.1343 28.1382 30.3482 28.1382H48.4896C49.6994 28.1382 50.6831 29.12 50.6831 30.3316V48.4713Z" fill="#FCC700"/>
<path fill-rule="evenodd" clip-rule="evenodd" d="M23.6523 75.5178C23.6523 76.73 22.6722 77.7096 21.4606 77.7096H3.31915C2.10754 77.7096 1.12744 76.73 1.12744 75.5178V57.3788C1.12744 56.1672 2.10754 55.1853 3.31915 55.1853H21.4606C22.6722 55.1853 23.6523 56.1672 23.6523 57.3788V75.5178Z" fill="#FCC700"/>
<path fill-rule="evenodd" clip-rule="evenodd" d="M50.6831 75.5178C50.6831 76.73 49.6994 77.7096 48.4896 77.7096H30.3482C29.1343 77.7096 28.1565 76.73 28.1565 75.5178V57.3788C28.1565 56.1672 29.1343 55.1853 30.3482 55.1853H48.4896C49.6994 55.1853 50.6831 56.1672 50.6831 57.3788V75.5178Z" fill="#FCC700"/>
<path fill-rule="evenodd" clip-rule="evenodd" d="M23.6523 102.575C23.6523 103.786 22.6722 104.768 21.4606 104.768H3.31915C2.10754 104.768 1.12744 103.786 1.12744 102.575V84.4352C1.12744 83.2236 2.10754 82.2417 3.31915 82.2417H21.4606C22.6722 82.2417 23.6523 83.2236 23.6523 84.4352V102.575Z" fill="#FCC700"/>
<path fill-rule="evenodd" clip-rule="evenodd" d="M50.6831 102.575C50.6831 103.786 49.6994 104.768 48.4896 104.768H30.3482C29.1343 104.768 28.1565 103.786 28.1565 102.575V84.4352C28.1565 83.2236 29.1343 82.2417 30.3482 82.2417H48.4896C49.6994 82.2417 50.6831 83.2236 50.6831 84.4352V102.575Z" fill="#FCC700"/>
<path fill-rule="evenodd" clip-rule="evenodd" d="M24.7783 12.3892C24.7783 19.2302 19.2341 24.7766 12.3875 24.7766C5.5482 24.7766 0 19.2302 0 12.3892C0 5.54423 5.5482 0 12.3875 0C19.2341 0 24.7783 5.54423 24.7783 12.3892Z" fill="#FCC700"/>
</svg>
