<svg width="400" height="105" viewBox="0 0 400 105" fill="none" xmlns="http://www.w3.org/2000/svg">
<path fill-rule="evenodd" clip-rule="evenodd" d="M50.6831 21.4578C50.6831 22.6699 49.6994 23.6495 48.4896 23.6495H30.3482C29.1343 23.6495 28.1565 22.6699 28.1565 21.4578V3.31865C28.1565 2.10477 29.1343 1.12695 30.3482 1.12695H48.4896C49.6994 1.12695 50.6831 2.10477 50.6831 3.31865V21.4578Z" fill="#FCC700"/>
<path fill-rule="evenodd" clip-rule="evenodd" d="M77.7126 21.4578C77.7126 22.6699 76.7284 23.6495 75.5186 23.6495H57.3794C56.1656 23.6495 55.1877 22.6699 55.1877 21.4578V3.31865C55.1877 2.10477 56.1656 1.12695 57.3794 1.12695H75.5186C76.7284 1.12695 77.7126 2.10477 77.7126 3.31865V21.4578Z" fill="#FCC700"/>
<path fill-rule="evenodd" clip-rule="evenodd" d="M77.7126 75.5178C77.7126 76.73 76.7284 77.7096 75.5186 77.7096H57.3794C56.1656 77.7096 55.1877 76.73 55.1877 75.5178V57.3788C55.1877 56.1672 56.1656 55.1853 57.3794 55.1853H75.5186C76.7284 55.1853 77.7126 56.1672 77.7126 57.3788V75.5178Z" fill="#FCC700"/>
<path fill-rule="evenodd" clip-rule="evenodd" d="M23.6523 48.4713C23.6523 49.6829 22.6722 50.6631 21.4606 50.6631H3.31915C2.10754 50.6631 1.12744 49.6829 1.12744 48.4713V30.3316C1.12744 29.12 2.10754 28.1382 3.31915 28.1382H21.4606C22.6722 28.1382 23.6523 29.12 23.6523 30.3316V48.4713Z" fill="#FCC700"/>
<path fill-rule="evenodd" clip-rule="evenodd" d="M50.6831 48.4713C50.6831 49.6829 49.6994 50.6631 48.4896 50.6631H30.3482C29.1343 50.6631 28.1565 49.6829 28.1565 48.4713V30.3316C28.1565 29.12 29.1343 28.1382 30.3482 28.1382H48.4896C49.6994 28.1382 50.6831 29.12 50.6831 30.3316V48.4713Z" fill="#FCC700"/>
<path fill-rule="evenodd" clip-rule="evenodd" d="M23.6523 75.5178C23.6523 76.73 22.6722 77.7096 21.4606 77.7096H3.31915C2.10754 77.7096 1.12744 76.73 1.12744 75.5178V57.3788C1.12744 56.1672 2.10754 55.1853 3.31915 55.1853H21.4606C22.6722 55.1853 23.6523 56.1672 23.6523 57.3788V75.5178Z" fill="#FCC700"/>
<path fill-rule="evenodd" clip-rule="evenodd" d="M50.6831 75.5178C50.6831 76.73 49.6994 77.7096 48.4896 77.7096H30.3482C29.1343 77.7096 28.1565 76.73 28.1565 75.5178V57.3788C28.1565 56.1672 29.1343 55.1853 30.3482 55.1853H48.4896C49.6994 55.1853 50.6831 56.1672 50.6831 57.3788V75.5178Z" fill="#FCC700"/>
<path fill-rule="evenodd" clip-rule="evenodd" d="M23.6523 102.575C23.6523 103.786 22.6722 104.768 21.4606 104.768H3.31915C2.10754 104.768 1.12744 103.786 1.12744 102.575V84.4352C1.12744 83.2236 2.10754 82.2417 3.31915 82.2417H21.4606C22.6722 82.2417 23.6523 83.2236 23.6523 84.4352V102.575Z" fill="#FCC700"/>
<path fill-rule="evenodd" clip-rule="evenodd" d="M50.6831 102.575C50.6831 103.786 49.6994 104.768 48.4896 104.768H30.3482C29.1343 104.768 28.1565 103.786 28.1565 102.575V84.4352C28.1565 83.2236 29.1343 82.2417 30.3482 82.2417H48.4896C49.6994 82.2417 50.6831 83.2236 50.6831 84.4352V102.575Z" fill="#FCC700"/>
<path fill-rule="evenodd" clip-rule="evenodd" d="M24.7783 12.3892C24.7783 19.2302 19.2341 24.7766 12.3875 24.7766C5.5482 24.7766 0 19.2302 0 12.3892C0 5.54423 5.5482 0 12.3875 0C19.2341 0 24.7783 5.54423 24.7783 12.3892Z" fill="#FCC700"/>
<path d="M102.435 75.4288L100.381 70.1807H93.7674L91.7359 75.4288H89.7947L96.318 58.8608H97.9319L104.421 75.4288H102.435ZM99.7828 68.454L97.8642 63.3414C97.6159 62.6943 97.3601 61.9005 97.0967 60.96C96.9312 61.6823 96.6942 62.4761 96.3857 63.3414L94.4445 68.454H99.7828Z" fill="#FCC700"/>
<path d="M108.281 75.4288H106.408V57.8677H108.281V75.4288Z" fill="#FCC700"/>
<path d="M119.883 75.4289L119.511 73.6683H119.421C118.804 74.4432 118.187 74.9699 117.57 75.2483C116.96 75.5192 116.197 75.6546 115.279 75.6546C114.052 75.6546 113.089 75.3386 112.389 74.7066C111.697 74.0746 111.351 73.1754 111.351 72.0092C111.351 69.5112 113.349 68.202 117.344 68.0817L119.443 68.0139V67.2465C119.443 66.2759 119.232 65.5611 118.811 65.1021C118.397 64.6356 117.731 64.4024 116.814 64.4024C115.783 64.4024 114.616 64.7184 113.315 65.3504L112.739 63.9171C113.349 63.586 114.015 63.3265 114.737 63.1384C115.467 62.9503 116.197 62.8562 116.926 62.8562C118.401 62.8562 119.492 63.1835 120.199 63.8381C120.914 64.4927 121.272 65.5423 121.272 66.9869V75.4289L119.883 75.4289ZM115.651 74.1084C116.817 74.1084 117.731 73.7886 118.394 73.1491C119.063 72.5096 119.398 71.6142 119.398 70.463V69.3457L117.525 69.4247C116.035 69.4774 114.959 69.7106 114.297 70.1244C113.642 70.5307 113.315 71.1665 113.315 72.0318C113.315 72.7089 113.518 73.2243 113.924 73.578C114.338 73.9316 114.914 74.1084 115.651 74.1084Z" fill="#FCC700"/>
<path d="M135.266 63.0592V64.2443L132.975 64.5151C133.186 64.7785 133.374 65.1246 133.539 65.5534C133.705 65.9748 133.788 66.4526 133.788 66.9868C133.788 68.1981 133.374 69.165 132.546 69.8873C131.719 70.6096 130.582 70.9707 129.138 70.9707C128.769 70.9707 128.423 70.9406 128.1 70.8804C127.302 71.3018 126.903 71.8322 126.903 72.4718C126.903 72.8104 127.042 73.0624 127.321 73.2279C127.599 73.3859 128.077 73.465 128.754 73.465H130.944C132.283 73.465 133.31 73.7471 134.025 74.3114C134.747 74.8757 135.108 75.6958 135.108 76.7718C135.108 78.1411 134.559 79.1832 133.46 79.898C132.362 80.6203 130.759 80.9815 128.653 80.9815C127.035 80.9815 125.786 80.6805 124.906 80.0786C124.033 79.4767 123.596 78.6264 123.596 77.5279C123.596 76.7755 123.837 76.1247 124.319 75.5754C124.8 75.0262 125.477 74.6537 126.35 74.4581C126.034 74.3152 125.767 74.0932 125.549 73.7922C125.338 73.4913 125.233 73.1414 125.233 72.7426C125.233 72.2912 125.353 71.8962 125.594 71.5576C125.835 71.219 126.215 70.8917 126.734 70.5757C126.094 70.3124 125.571 69.8647 125.165 69.2327C124.766 68.6007 124.567 67.8784 124.567 67.0658C124.567 65.7114 124.973 64.6694 125.786 63.9395C126.599 63.2022 127.75 62.8335 129.239 62.8335C129.887 62.8335 130.47 62.9087 130.989 63.0592H135.266ZM125.402 77.5054C125.402 78.175 125.684 78.6829 126.249 79.029C126.813 79.3751 127.622 79.5481 128.675 79.5481C130.248 79.5481 131.41 79.3111 132.163 78.8371C132.922 78.3706 133.302 77.7348 133.302 76.9298C133.302 76.2601 133.096 75.7936 132.682 75.5303C132.268 75.2745 131.489 75.1466 130.345 75.1466H128.1C127.249 75.1466 126.587 75.3497 126.113 75.756C125.639 76.1623 125.402 76.7454 125.402 77.5054ZM126.418 67.0206C126.418 67.8859 126.662 68.5405 127.152 68.9844C127.641 69.4283 128.322 69.6503 129.194 69.6503C131.023 69.6503 131.937 68.7624 131.937 66.9868C131.937 65.1283 131.011 64.1991 129.16 64.1991C128.28 64.1991 127.603 64.4361 127.129 64.9101C126.655 65.3841 126.418 66.0876 126.418 67.0206Z" fill="#FCC700"/>
<path d="M148.505 69.2327C148.505 71.2491 147.997 72.8254 146.981 73.9615C145.965 75.0901 144.562 75.6544 142.771 75.6544C141.665 75.6544 140.683 75.3949 139.826 74.8757C138.968 74.3565 138.306 73.6117 137.839 72.6411C137.373 71.6705 137.14 70.5343 137.14 69.2327C137.14 67.2162 137.644 65.6475 138.652 64.5264C139.66 63.3978 141.06 62.8335 142.85 62.8335C144.581 62.8335 145.954 63.4091 146.97 64.5603C147.993 65.7114 148.505 67.2689 148.505 69.2327ZM139.081 69.2327C139.081 70.8127 139.397 72.0166 140.029 72.8442C140.661 73.6719 141.59 74.0857 142.817 74.0857C144.043 74.0857 144.972 73.6756 145.604 72.8555C146.244 72.0279 146.563 70.8203 146.563 69.2327C146.563 67.6602 146.244 66.4676 145.604 65.655C144.972 64.8349 144.035 64.4248 142.794 64.4248C141.568 64.4248 140.642 64.8274 140.018 65.6324C139.393 66.4375 139.081 67.6376 139.081 69.2327Z" fill="#FCC700"/>
<path d="M159.385 75.4289L159.012 73.6683H158.922C158.305 74.4432 157.688 74.9699 157.071 75.2483C156.461 75.5192 155.698 75.6546 154.78 75.6546C153.553 75.6546 152.59 75.3386 151.891 74.7066C151.198 74.0746 150.852 73.1754 150.852 72.0092C150.852 69.5112 152.85 68.202 156.845 68.0817L158.944 68.0139V67.2465C158.944 66.2759 158.734 65.5611 158.312 65.1021C157.899 64.6356 157.233 64.4024 156.315 64.4024C155.284 64.4024 154.118 64.7184 152.816 65.3504L152.24 63.9171C152.85 63.586 153.516 63.3265 154.238 63.1384C154.968 62.9503 155.698 62.8562 156.428 62.8562C157.902 62.8562 158.993 63.1835 159.701 63.8381C160.415 64.4927 160.773 65.5423 160.773 66.9869V75.4289L159.385 75.4289ZM155.152 74.1084C156.319 74.1084 157.233 73.7886 157.895 73.1491C158.564 72.5096 158.899 71.6142 158.899 70.463V69.3457L157.026 69.4247C155.536 69.4774 154.46 69.7106 153.798 70.1244C153.143 70.5307 152.816 71.1665 152.816 72.0318C152.816 72.7089 153.019 73.2243 153.426 73.578C153.839 73.9316 154.415 74.1084 155.152 74.1084Z" fill="#FCC700"/>
<path d="M172.623 72.0542C172.623 73.2054 172.194 74.0932 171.336 74.7177C170.479 75.3422 169.275 75.6544 167.725 75.6544C166.085 75.6544 164.806 75.3949 163.888 74.8757V73.1377C164.482 73.4386 165.118 73.6756 165.795 73.8487C166.48 74.0217 167.138 74.1083 167.77 74.1083C168.748 74.1083 169.501 73.954 170.027 73.6455C170.554 73.3295 170.817 72.8517 170.817 72.2122C170.817 71.7307 170.607 71.3206 170.185 70.982C169.771 70.6359 168.959 70.2296 167.747 69.7631C166.596 69.3343 165.776 68.9618 165.287 68.6458C164.806 68.3223 164.444 67.9574 164.204 67.5511C163.97 67.1448 163.854 66.6595 163.854 66.0952C163.854 65.0869 164.264 64.2932 165.084 63.7138C165.904 63.1269 167.029 62.8335 168.458 62.8335C169.79 62.8335 171.092 63.1044 172.363 63.6461L171.698 65.1697C170.456 64.6581 169.331 64.4023 168.323 64.4023C167.435 64.4023 166.766 64.5414 166.314 64.8198C165.863 65.0982 165.637 65.482 165.637 65.971C165.637 66.3021 165.72 66.5842 165.885 66.8175C166.058 67.0507 166.333 67.2727 166.709 67.4833C167.085 67.694 167.808 67.9987 168.876 68.3975C170.343 68.9317 171.333 69.4697 171.844 70.0114C172.363 70.5531 172.623 71.2341 172.623 72.0542Z" fill="#FCC700"/>
<path d="M90.7925 50.8146V28.2905H95.5684V50.8146H90.7925Z" fill="#FCC700"/>
<path d="M121.251 50.8146H115.181L105.382 33.7752H105.244C105.439 36.7846 105.536 38.9312 105.536 40.215V50.8146H101.269V28.2905H107.293L117.076 45.1605H117.184C117.029 42.2333 116.952 40.1637 116.952 38.9517V28.2905H121.251V50.8146Z" fill="#FCC700"/>
<path d="M140.201 44.5594C140.201 46.5931 139.466 48.1953 137.998 49.3662C136.539 50.5371 134.506 51.1225 131.897 51.1225C129.493 51.1225 127.367 50.6706 125.519 49.7668V45.3298C127.039 46.0076 128.323 46.4852 129.37 46.7625C130.428 47.0399 131.394 47.1785 132.267 47.1785C133.314 47.1785 134.115 46.9782 134.67 46.5777C135.235 46.1771 135.517 45.5814 135.517 44.7905C135.517 44.3489 135.394 43.9586 135.148 43.6196C134.901 43.2704 134.536 42.9366 134.054 42.6182C133.581 42.2998 132.611 41.7914 131.142 41.093C129.766 40.4459 128.733 39.8246 128.045 39.2288C127.357 38.6331 126.808 37.9398 126.397 37.149C125.986 36.3581 125.78 35.4337 125.78 34.3758C125.78 32.3833 126.453 30.817 127.799 29.6769C129.154 28.5368 131.024 27.9668 133.407 27.9668C134.577 27.9668 135.692 28.1055 136.75 28.3828C137.818 28.6601 138.932 29.0504 140.093 29.5537L138.552 33.2666C137.351 32.7736 136.354 32.4295 135.563 32.2344C134.783 32.0392 134.013 31.9416 133.253 31.9416C132.349 31.9416 131.655 32.1522 131.173 32.5733C130.69 32.9944 130.449 33.5439 130.449 34.2218C130.449 34.6429 130.546 35.0126 130.741 35.331C130.936 35.6392 131.245 35.9421 131.666 36.24C132.097 36.5276 133.109 37.0514 134.701 37.8115C136.806 38.818 138.249 39.8297 139.03 40.8465C139.811 41.8531 140.201 43.0907 140.201 44.5594Z" fill="#FCC700"/>
<path d="M152.973 50.8146H148.197V32.2654H142.08V28.2905H159.089V32.2654H152.973V50.8146Z" fill="#FCC700"/>
<path d="M162.586 50.8146V28.2905H167.362V50.8146H162.586Z" fill="#FCC700"/>
<path d="M181.752 50.8146H176.976V32.2654H170.859V28.2905H187.868V32.2654H181.752V50.8146Z" fill="#FCC700"/>
<path d="M209.699 28.2905V42.8649C209.699 44.5288 209.324 45.9873 208.574 47.2403C207.835 48.4934 206.761 49.4537 205.354 50.1213C203.947 50.7889 202.283 51.1227 200.363 51.1227C197.466 51.1227 195.217 50.3832 193.615 48.9042C192.012 47.4149 191.211 45.3813 191.211 42.8033V28.2905H195.972V42.0792C195.972 43.815 196.321 45.0886 197.019 45.9C197.718 46.7114 198.873 47.1171 200.486 47.1171C202.047 47.1171 203.177 46.7114 203.875 45.9C204.584 45.0783 204.938 43.7944 204.938 42.0484V28.2905H209.699Z" fill="#FCC700"/>
<path d="M223.903 50.8146H219.128V32.2654H213.011V28.2905H230.02V32.2654H223.903V50.8146Z" fill="#FCC700"/>
<path d="M253.961 39.5216C253.961 43.2499 253.037 46.1155 251.188 48.1184C249.339 50.1212 246.689 51.1226 243.238 51.1226C239.787 51.1226 237.138 50.1212 235.289 48.1184C233.44 46.1155 232.516 43.2397 232.516 39.4908C232.516 35.7419 233.44 32.8815 235.289 30.9095C237.148 28.9272 239.808 27.936 243.269 27.936C246.731 27.936 249.375 28.9323 251.204 30.9249C253.042 32.9174 253.961 35.783 253.961 39.5216ZM237.523 39.5216C237.523 42.038 238 43.933 238.956 45.2066C239.911 46.4801 241.338 47.1169 243.238 47.1169C247.049 47.1169 248.954 44.5852 248.954 39.5216C248.954 34.4478 247.059 31.9109 243.269 31.9109C241.369 31.9109 239.936 32.5528 238.971 33.8367C238.005 35.1103 237.523 37.0052 237.523 39.5216Z" fill="#FCC700"/>
<path d="M271.555 50.8146H266.856V28.2905H279.767V32.2037H271.555V38.0119H279.197V41.9097H271.555V50.8146Z" fill="#FCC700"/>
<path d="M297.145 50.8146H284.173V28.2905H297.145V32.2037H288.949V37.1492H296.575V41.0624H288.949V46.8706H297.145V50.8146Z" fill="#FCC700"/>
<path d="M320.548 39.3369C320.548 43.0447 319.49 45.8846 317.374 47.8566C315.268 49.8286 312.223 50.8146 308.238 50.8146H301.86V28.2905H308.931C312.608 28.2905 315.463 29.2611 317.497 31.2023C319.531 33.1435 320.548 35.855 320.548 39.3369ZM315.587 39.4601C315.587 34.6225 313.45 32.2037 309.178 32.2037H306.636V46.8706H308.685C313.286 46.8706 315.587 44.4004 315.587 39.4601Z" fill="#FCC700"/>
<path d="M338.188 50.8146H325.216V28.2905H338.188V32.2037H329.992V37.1492H337.618V41.0624H329.992V46.8706H338.188V50.8146Z" fill="#FCC700"/>
<path d="M347.678 38.2892H349.219C350.729 38.2892 351.843 38.0376 352.562 37.5343C353.281 37.0311 353.64 36.2402 353.64 35.1618C353.64 34.0936 353.271 33.3335 352.531 32.8816C351.802 32.4297 350.667 32.2037 349.126 32.2037H347.678V38.2892ZM347.678 42.1716V50.8146H342.902V28.2905H349.465C352.526 28.2905 354.791 28.8503 356.259 29.9698C357.728 31.0791 358.463 32.7686 358.463 35.0385C358.463 36.3635 358.098 37.5446 357.369 38.582C356.639 39.6091 355.607 40.4153 354.272 41.0008C357.661 46.0643 359.87 49.3356 360.897 50.8146H355.597L350.22 42.1716H347.678Z" fill="#FCC700"/>
<path d="M377.52 50.8145L375.887 45.4531H367.676L366.042 50.8145H360.897L368.846 28.198H374.685L382.666 50.8145H377.52ZM374.747 41.4475C373.237 36.5893 372.385 33.8419 372.19 33.2051C372.005 32.5683 371.871 32.065 371.789 31.6952C371.45 33.0099 370.479 36.2607 368.877 41.4475H374.747Z" fill="#FCC700"/>
<path d="M385.485 50.8146V28.2905H390.261V46.8706H399.397V50.8146H385.485Z" fill="#FCC700"/>
<path d="M99.0098 87.6318H97.6007C97.5174 87.2265 97.3715 86.8705 97.1632 86.5637C96.9587 86.2568 96.7087 85.9993 96.4132 85.7909C96.1215 85.5788 95.7977 85.4197 95.4416 85.3137C95.0855 85.2076 94.7143 85.1546 94.328 85.1546C93.6234 85.1546 92.9852 85.3326 92.4132 85.6887C91.845 86.0447 91.3924 86.5693 91.0552 87.2625C90.7219 87.9557 90.5552 88.8061 90.5552 89.8137C90.5552 90.8212 90.7219 91.6716 91.0552 92.3648C91.3924 93.058 91.845 93.5826 92.4132 93.9387C92.9852 94.2947 93.6234 94.4727 94.328 94.4727C94.7143 94.4727 95.0855 94.4197 95.4416 94.3137C95.7977 94.2076 96.1215 94.0504 96.4132 93.8421C96.7087 93.6299 96.9587 93.3705 97.1632 93.0637C97.3715 92.753 97.5174 92.397 97.6007 91.9955H99.0098C98.9037 92.5902 98.7105 93.1224 98.4302 93.5921C98.1499 94.0618 97.8015 94.4614 97.3848 94.7909C96.9681 95.1167 96.5003 95.3648 95.9814 95.5352C95.4662 95.7057 94.9151 95.7909 94.328 95.7909C93.3355 95.7909 92.453 95.5485 91.6802 95.0637C90.9075 94.5788 90.2996 93.8894 89.8564 92.9955C89.4132 92.1015 89.1916 91.0409 89.1916 89.8137C89.1916 88.5864 89.4132 87.5258 89.8564 86.6318C90.2996 85.7379 90.9075 85.0485 91.6802 84.5637C92.453 84.0788 93.3355 83.8364 94.328 83.8364C94.9151 83.8364 95.4662 83.9216 95.9814 84.0921C96.5003 84.2625 96.9681 84.5125 97.3848 84.8421C97.8015 85.1678 98.1499 85.5655 98.4302 86.0352C98.7105 86.5012 98.9037 87.0334 99.0098 87.6318ZM103.673 95.8364C103.12 95.8364 102.618 95.7322 102.167 95.5239C101.717 95.3118 101.359 95.0068 101.094 94.6091C100.828 94.2076 100.696 93.7227 100.696 93.1546C100.696 92.6546 100.794 92.2493 100.991 91.9387C101.188 91.6243 101.452 91.378 101.781 91.2C102.111 91.022 102.474 90.8894 102.872 90.8023C103.274 90.7114 103.677 90.6394 104.082 90.5864C104.613 90.5182 105.042 90.4671 105.372 90.433C105.705 90.3951 105.948 90.3326 106.099 90.2455C106.255 90.1584 106.332 90.0068 106.332 89.7909V89.7455C106.332 89.1849 106.179 88.7493 105.872 88.4387C105.569 88.128 105.109 87.9727 104.491 87.9727C103.851 87.9727 103.349 88.1129 102.986 88.3932C102.622 88.6735 102.366 88.9727 102.219 89.2909L100.946 88.8364C101.173 88.3061 101.476 87.8932 101.855 87.5977C102.238 87.2985 102.654 87.0902 103.105 86.9727C103.56 86.8515 104.006 86.7909 104.446 86.7909C104.726 86.7909 105.048 86.825 105.412 86.8932C105.779 86.9576 106.133 87.0921 106.474 87.2966C106.819 87.5012 107.105 87.8099 107.332 88.2227C107.56 88.6356 107.673 89.1887 107.673 89.8818V95.6318H106.332V94.45H106.264C106.173 94.6394 106.022 94.8421 105.81 95.058C105.597 95.2739 105.315 95.4576 104.963 95.6091C104.611 95.7606 104.181 95.8364 103.673 95.8364ZM103.878 94.6318C104.408 94.6318 104.855 94.5277 105.219 94.3193C105.586 94.111 105.863 93.8421 106.048 93.5125C106.238 93.183 106.332 92.8364 106.332 92.4727V91.2455C106.275 91.3137 106.15 91.3762 105.957 91.433C105.768 91.486 105.548 91.5334 105.298 91.575C105.052 91.6129 104.811 91.647 104.577 91.6773C104.345 91.7038 104.158 91.7265 104.014 91.7455C103.666 91.7909 103.34 91.8648 103.037 91.9671C102.738 92.0655 102.495 92.2152 102.31 92.4159C102.128 92.6129 102.037 92.8818 102.037 93.2227C102.037 93.6887 102.209 94.0409 102.554 94.2796C102.902 94.5144 103.344 94.6318 103.878 94.6318ZM110.121 95.6318V86.9046H111.416V88.2682H111.53C111.711 87.8023 112.005 87.4405 112.41 87.183C112.816 86.9216 113.302 86.7909 113.871 86.7909C114.446 86.7909 114.926 86.9216 115.308 87.183C115.694 87.4405 115.996 87.8023 116.211 88.2682H116.302C116.526 87.8174 116.861 87.4595 117.308 87.1943C117.755 86.9254 118.291 86.7909 118.916 86.7909C119.696 86.7909 120.335 87.0352 120.831 87.5239C121.327 88.0087 121.575 88.7644 121.575 89.7909V95.6318H120.234V89.7909C120.234 89.147 120.058 88.6868 119.706 88.4102C119.354 88.1337 118.939 87.9955 118.461 87.9955C117.848 87.9955 117.372 88.1811 117.035 88.5523C116.698 88.9197 116.53 89.3856 116.53 89.95V95.6318H115.166V89.6546C115.166 89.1584 115.005 88.7587 114.683 88.4557C114.361 88.1489 113.946 87.9955 113.439 87.9955C113.09 87.9955 112.765 88.0883 112.461 88.2739C112.162 88.4595 111.92 88.7171 111.734 89.0466C111.552 89.3724 111.461 89.7493 111.461 90.1773V95.6318H110.121ZM124.027 98.9046V86.9046H125.322V88.2909H125.481C125.58 88.1394 125.716 87.9462 125.89 87.7114C126.069 87.4727 126.322 87.2606 126.652 87.075C126.985 86.8856 127.436 86.7909 128.004 86.7909C128.739 86.7909 129.387 86.9746 129.947 87.3421C130.508 87.7095 130.945 88.2303 131.26 88.9046C131.574 89.5788 131.731 90.3743 131.731 91.2909C131.731 92.2152 131.574 93.0163 131.26 93.6943C130.945 94.3686 130.51 94.8913 129.953 95.2625C129.396 95.6299 128.754 95.8137 128.027 95.8137C127.466 95.8137 127.017 95.7209 126.68 95.5352C126.343 95.3459 126.084 95.1318 125.902 94.8932C125.72 94.6508 125.58 94.45 125.481 94.2909H125.368V98.9046H124.027ZM125.345 91.2682C125.345 91.9273 125.442 92.5087 125.635 93.0125C125.828 93.5125 126.11 93.9046 126.481 94.1887C126.853 94.469 127.307 94.6091 127.845 94.6091C128.406 94.6091 128.873 94.4614 129.248 94.1659C129.627 93.8667 129.911 93.4652 130.101 92.9614C130.294 92.4538 130.39 91.8894 130.39 91.2682C130.39 90.6546 130.296 90.1015 130.106 89.6091C129.921 89.1129 129.639 88.7209 129.26 88.433C128.885 88.1413 128.413 87.9955 127.845 87.9955C127.3 87.9955 126.841 88.1337 126.47 88.4102C126.099 88.683 125.819 89.0655 125.629 89.558C125.44 90.0466 125.345 90.6167 125.345 91.2682ZM139.277 92.0637V86.9046H140.618V95.6318H139.277V94.1546H139.186C138.981 94.5977 138.663 94.9746 138.231 95.2852C137.8 95.5921 137.254 95.7455 136.595 95.7455C136.05 95.7455 135.565 95.6262 135.14 95.3875C134.716 95.1451 134.383 94.7815 134.14 94.2966C133.898 93.808 133.777 93.1924 133.777 92.45V86.9046H135.118V92.3591C135.118 92.9955 135.296 93.503 135.652 93.8818C136.012 94.2606 136.47 94.45 137.027 94.45C137.36 94.45 137.699 94.3648 138.044 94.1943C138.392 94.0239 138.684 93.7625 138.919 93.4102C139.158 93.058 139.277 92.6091 139.277 92.0637ZM149.256 88.8591L148.051 89.2C147.975 88.9993 147.863 88.8042 147.716 88.6148C147.572 88.4216 147.375 88.2625 147.125 88.1375C146.875 88.0125 146.555 87.95 146.165 87.95C145.631 87.95 145.185 88.0731 144.829 88.3193C144.477 88.5618 144.301 88.8705 144.301 89.2455C144.301 89.5788 144.422 89.8421 144.665 90.0352C144.907 90.2284 145.286 90.3894 145.801 90.5182L147.096 90.8364C147.877 91.0258 148.458 91.3155 148.841 91.7057C149.223 92.0921 149.415 92.5902 149.415 93.2C149.415 93.7 149.271 94.147 148.983 94.5409C148.699 94.9349 148.301 95.2455 147.79 95.4727C147.278 95.7 146.684 95.8137 146.006 95.8137C145.115 95.8137 144.379 95.6205 143.795 95.2341C143.212 94.8477 142.843 94.2834 142.687 93.5409L143.96 93.2227C144.081 93.6924 144.31 94.0447 144.648 94.2796C144.988 94.5144 145.434 94.6318 145.983 94.6318C146.608 94.6318 147.104 94.4993 147.471 94.2341C147.843 93.9652 148.028 93.6432 148.028 93.2682C148.028 92.9652 147.922 92.7114 147.71 92.5068C147.498 92.2985 147.172 92.1432 146.733 92.0409L145.278 91.7C144.479 91.5106 143.892 91.2171 143.517 90.8193C143.146 90.4178 142.96 89.9159 142.96 89.3137C142.96 88.8212 143.098 88.3856 143.375 88.0068C143.655 87.628 144.036 87.3307 144.517 87.1148C145.002 86.8989 145.551 86.7909 146.165 86.7909C147.028 86.7909 147.706 86.9803 148.199 87.3591C148.695 87.7379 149.047 88.2379 149.256 88.8591ZM156.592 95.6318H155.115L159.388 83.9955H160.842L165.115 95.6318H163.638L160.16 85.8364H160.069L156.592 95.6318ZM157.138 91.0864H163.092V92.3364H157.138V91.0864ZM166.746 95.6318V86.9046H168.041V88.2227H168.132C168.291 87.7909 168.579 87.4405 168.996 87.1716C169.412 86.9027 169.882 86.7682 170.405 86.7682C170.503 86.7682 170.626 86.7701 170.774 86.7739C170.922 86.7777 171.033 86.7834 171.109 86.7909V88.1546C171.064 88.1432 170.96 88.1262 170.797 88.1034C170.638 88.0769 170.469 88.0637 170.291 88.0637C169.867 88.0637 169.488 88.1527 169.155 88.3307C168.825 88.5049 168.564 88.7474 168.371 89.058C168.181 89.3648 168.086 89.7152 168.086 90.1091V95.6318H166.746ZM175.267 95.8364C174.714 95.8364 174.212 95.7322 173.761 95.5239C173.31 95.3118 172.952 95.0068 172.687 94.6091C172.422 94.2076 172.29 93.7227 172.29 93.1546C172.29 92.6546 172.388 92.2493 172.585 91.9387C172.782 91.6243 173.045 91.378 173.375 91.2C173.704 91.022 174.068 90.8894 174.466 90.8023C174.867 90.7114 175.271 90.6394 175.676 90.5864C176.206 90.5182 176.636 90.4671 176.966 90.433C177.299 90.3951 177.542 90.3326 177.693 90.2455C177.848 90.1584 177.926 90.0068 177.926 89.7909V89.7455C177.926 89.1849 177.773 88.7493 177.466 88.4387C177.163 88.128 176.702 87.9727 176.085 87.9727C175.445 87.9727 174.943 88.1129 174.579 88.3932C174.216 88.6735 173.96 88.9727 173.812 89.2909L172.54 88.8364C172.767 88.3061 173.07 87.8932 173.449 87.5977C173.831 87.2985 174.248 87.0902 174.699 86.9727C175.153 86.8515 175.6 86.7909 176.04 86.7909C176.32 86.7909 176.642 86.825 177.006 86.8932C177.373 86.9576 177.727 87.0921 178.068 87.2966C178.413 87.5012 178.699 87.8099 178.926 88.2227C179.153 88.6356 179.267 89.1887 179.267 89.8818V95.6318H177.926V94.45H177.858C177.767 94.6394 177.615 94.8421 177.403 95.058C177.191 95.2739 176.909 95.4576 176.557 95.6091C176.204 95.7606 175.774 95.8364 175.267 95.8364ZM175.471 94.6318C176.002 94.6318 176.449 94.5277 176.812 94.3193C177.18 94.111 177.456 93.8421 177.642 93.5125C177.831 93.183 177.926 92.8364 177.926 92.4727V91.2455C177.869 91.3137 177.744 91.3762 177.551 91.433C177.362 91.486 177.142 91.5334 176.892 91.575C176.646 91.6129 176.405 91.647 176.17 91.6773C175.939 91.7038 175.752 91.7265 175.608 91.7455C175.259 91.7909 174.934 91.8648 174.631 91.9671C174.331 92.0655 174.089 92.2152 173.903 92.4159C173.721 92.6129 173.631 92.8818 173.631 93.2227C173.631 93.6887 173.803 94.0409 174.148 94.2796C174.496 94.5144 174.937 94.6318 175.471 94.6318ZM181.714 98.9046V86.9046H183.01V88.2909H183.169C183.267 88.1394 183.404 87.9462 183.578 87.7114C183.756 87.4727 184.01 87.2606 184.339 87.075C184.673 86.8856 185.123 86.7909 185.692 86.7909C186.426 86.7909 187.074 86.9746 187.635 87.3421C188.195 87.7095 188.633 88.2303 188.947 88.9046C189.262 89.5788 189.419 90.3743 189.419 91.2909C189.419 92.2152 189.262 93.0163 188.947 93.6943C188.633 94.3686 188.197 94.8913 187.64 95.2625C187.084 95.6299 186.442 95.8137 185.714 95.8137C185.154 95.8137 184.705 95.7209 184.368 95.5352C184.031 95.3459 183.771 95.1318 183.589 94.8932C183.408 94.6508 183.267 94.45 183.169 94.2909H183.055V98.9046H181.714ZM183.033 91.2682C183.033 91.9273 183.129 92.5087 183.322 93.0125C183.515 93.5125 183.798 93.9046 184.169 94.1887C184.54 94.469 184.995 94.6091 185.533 94.6091C186.093 94.6091 186.561 94.4614 186.936 94.1659C187.315 93.8667 187.599 93.4652 187.788 92.9614C187.981 92.4538 188.078 91.8894 188.078 91.2682C188.078 90.6546 187.983 90.1015 187.794 89.6091C187.608 89.1129 187.326 88.7209 186.947 88.433C186.572 88.1413 186.101 87.9955 185.533 87.9955C184.987 87.9955 184.529 88.1337 184.158 88.4102C183.786 88.683 183.506 89.0655 183.317 89.558C183.127 90.0466 183.033 90.6167 183.033 91.2682ZM191.464 95.6318V86.9046H192.805V95.6318H191.464ZM192.146 85.45C191.885 85.45 191.659 85.361 191.47 85.183C191.284 85.0049 191.192 84.7909 191.192 84.5409C191.192 84.2909 191.284 84.0769 191.47 83.8989C191.659 83.7209 191.885 83.6318 192.146 83.6318C192.408 83.6318 192.631 83.7209 192.817 83.8989C193.006 84.0769 193.101 84.2909 193.101 84.5409C193.101 84.7909 193.006 85.0049 192.817 85.183C192.631 85.361 192.408 85.45 192.146 85.45ZM195.261 95.6318V86.9046H196.557V88.2227H196.648C196.807 87.7909 197.095 87.4405 197.511 87.1716C197.928 86.9027 198.398 86.7682 198.92 86.7682C199.019 86.7682 199.142 86.7701 199.29 86.7739C199.437 86.7777 199.549 86.7834 199.625 86.7909V88.1546C199.579 88.1432 199.475 88.1262 199.312 88.1034C199.153 88.0769 198.985 88.0637 198.807 88.0637C198.382 88.0637 198.004 88.1527 197.67 88.3307C197.341 88.5049 197.079 88.7474 196.886 89.058C196.697 89.3648 196.602 89.7152 196.602 90.1091V95.6318H195.261ZM203.783 95.8364C203.229 95.8364 202.728 95.7322 202.277 95.5239C201.826 95.3118 201.468 95.0068 201.203 94.6091C200.938 94.2076 200.805 93.7227 200.805 93.1546C200.805 92.6546 200.904 92.2493 201.101 91.9387C201.298 91.6243 201.561 91.378 201.89 91.2C202.22 91.022 202.584 90.8894 202.981 90.8023C203.383 90.7114 203.786 90.6394 204.192 90.5864C204.722 90.5182 205.152 90.4671 205.481 90.433C205.815 90.3951 206.057 90.3326 206.209 90.2455C206.364 90.1584 206.442 90.0068 206.442 89.7909V89.7455C206.442 89.1849 206.288 88.7493 205.981 88.4387C205.678 88.128 205.218 87.9727 204.601 87.9727C203.961 87.9727 203.459 88.1129 203.095 88.3932C202.731 88.6735 202.476 88.9727 202.328 89.2909L201.055 88.8364C201.283 88.3061 201.586 87.8932 201.964 87.5977C202.347 87.2985 202.764 87.0902 203.214 86.9727C203.669 86.8515 204.116 86.7909 204.555 86.7909C204.836 86.7909 205.158 86.825 205.521 86.8932C205.889 86.9576 206.243 87.0921 206.584 87.2966C206.928 87.5012 207.214 87.8099 207.442 88.2227C207.669 88.6356 207.783 89.1887 207.783 89.8818V95.6318H206.442V94.45H206.373C206.283 94.6394 206.131 94.8421 205.919 95.058C205.707 95.2739 205.425 95.4576 205.072 95.6091C204.72 95.7606 204.29 95.8364 203.783 95.8364ZM203.987 94.6318C204.517 94.6318 204.964 94.5277 205.328 94.3193C205.695 94.111 205.972 93.8421 206.158 93.5125C206.347 93.183 206.442 92.8364 206.442 92.4727V91.2455C206.385 91.3137 206.26 91.3762 206.067 91.433C205.877 91.486 205.658 91.5334 205.408 91.575C205.161 91.6129 204.921 91.647 204.686 91.6773C204.455 91.7038 204.267 91.7265 204.123 91.7455C203.775 91.7909 203.449 91.8648 203.146 91.9671C202.847 92.0655 202.604 92.2152 202.419 92.4159C202.237 92.6129 202.146 92.8818 202.146 93.2227C202.146 93.6887 202.319 94.0409 202.663 94.2796C203.012 94.5144 203.453 94.6318 203.987 94.6318ZM213.775 95.8137C212.957 95.8137 212.253 95.6205 211.662 95.2341C211.071 94.8477 210.616 94.3155 210.298 93.6375C209.98 92.9595 209.821 92.1849 209.821 91.3137C209.821 90.4273 209.984 89.6451 210.31 88.9671C210.639 88.2852 211.097 87.753 211.685 87.3705C212.275 86.9841 212.965 86.7909 213.753 86.7909C214.366 86.7909 214.919 86.9046 215.412 87.1318C215.904 87.3591 216.308 87.6773 216.622 88.0864C216.936 88.4955 217.131 88.9727 217.207 89.5182H215.866C215.764 89.1205 215.537 88.7682 215.185 88.4614C214.836 88.1508 214.366 87.9955 213.775 87.9955C213.253 87.9955 212.794 88.1318 212.4 88.4046C212.01 88.6735 211.705 89.0542 211.486 89.5466C211.27 90.0352 211.162 90.6091 211.162 91.2682C211.162 91.9424 211.268 92.5296 211.48 93.0296C211.696 93.5296 211.999 93.9178 212.389 94.1943C212.783 94.4709 213.245 94.6091 213.775 94.6091C214.124 94.6091 214.44 94.5485 214.724 94.4273C215.008 94.3061 215.249 94.1318 215.446 93.9046C215.643 93.6773 215.783 93.4046 215.866 93.0864H217.207C217.131 93.6015 216.944 94.0655 216.645 94.4784C216.349 94.8875 215.957 95.2133 215.469 95.4557C214.984 95.6943 214.419 95.8137 213.775 95.8137ZM221.736 95.8364C221.183 95.8364 220.681 95.7322 220.23 95.5239C219.779 95.3118 219.421 95.0068 219.156 94.6091C218.891 94.2076 218.758 93.7227 218.758 93.1546C218.758 92.6546 218.857 92.2493 219.054 91.9387C219.251 91.6243 219.514 91.378 219.844 91.2C220.173 91.022 220.537 90.8894 220.935 90.8023C221.336 90.7114 221.739 90.6394 222.145 90.5864C222.675 90.5182 223.105 90.4671 223.435 90.433C223.768 90.3951 224.01 90.3326 224.162 90.2455C224.317 90.1584 224.395 90.0068 224.395 89.7909V89.7455C224.395 89.1849 224.241 88.7493 223.935 88.4387C223.631 88.128 223.171 87.9727 222.554 87.9727C221.914 87.9727 221.412 88.1129 221.048 88.3932C220.685 88.6735 220.429 88.9727 220.281 89.2909L219.008 88.8364C219.236 88.3061 219.539 87.8932 219.917 87.5977C220.3 87.2985 220.717 87.0902 221.167 86.9727C221.622 86.8515 222.069 86.7909 222.508 86.7909C222.789 86.7909 223.111 86.825 223.474 86.8932C223.842 86.9576 224.196 87.0921 224.537 87.2966C224.881 87.5012 225.167 87.8099 225.395 88.2227C225.622 88.6356 225.736 89.1887 225.736 89.8818V95.6318H224.395V94.45H224.327C224.236 94.6394 224.084 94.8421 223.872 95.058C223.66 95.2739 223.378 95.4576 223.025 95.6091C222.673 95.7606 222.243 95.8364 221.736 95.8364ZM221.94 94.6318C222.47 94.6318 222.917 94.5277 223.281 94.3193C223.649 94.111 223.925 93.8421 224.111 93.5125C224.3 93.183 224.395 92.8364 224.395 92.4727V91.2455C224.338 91.3137 224.213 91.3762 224.02 91.433C223.83 91.486 223.611 91.5334 223.361 91.575C223.114 91.6129 222.874 91.647 222.639 91.6773C222.408 91.7038 222.22 91.7265 222.077 91.7455C221.728 91.7909 221.402 91.8648 221.099 91.9671C220.8 92.0655 220.558 92.2152 220.372 92.4159C220.19 92.6129 220.099 92.8818 220.099 93.2227C220.099 93.6887 220.272 94.0409 220.616 94.2796C220.965 94.5144 221.406 94.6318 221.94 94.6318Z" fill="#FCC700"/>
</svg>
