<svg width="61" height="59" viewBox="0 0 61 59" fill="none" xmlns="http://www.w3.org/2000/svg">
<g filter="url(#filter0_d_1_553)">
<path d="M4 15C4 6.71573 10.7157 0 19 0H41.6032C49.8875 0 56.6032 6.71573 56.6032 15V35.0681C56.6032 43.3524 49.8875 50.0681 41.6032 50.0681H19C10.7157 50.0681 4 43.3524 4 35.0681V15Z" fill="#FCC700"/>
<path d="M19 0.5H41.6035C49.6115 0.500148 56.1035 6.99196 56.1035 15V35.0684C56.1034 43.0763 49.6114 49.5682 41.6035 49.5684H19C10.9919 49.5684 4.50012 43.0764 4.5 35.0684V15C4.5 6.99187 10.9919 0.5 19 0.5Z" stroke="black"/>
</g>
<path d="M26.5194 36.1651C26.5184 37.1024 26.518 38.0199 26.516 38.9375C26.5153 39.2543 26.4778 39.2753 26.1708 39.1261C23.0765 37.6229 19.9826 36.1192 16.8888 34.6151C16.0356 34.2004 15.1898 33.7731 14.3277 33.3737C13.9169 33.1833 13.7635 32.9034 13.7648 32.5101C13.7724 30.3515 13.7547 28.1929 13.7785 26.0345C13.8131 22.886 13.7872 19.7375 13.7972 16.5891C13.7978 16.4043 13.7993 16.2194 13.8072 16.0347C13.8157 15.8369 13.865 15.8071 14.0653 15.8877C14.5183 16.0701 14.9694 16.2562 15.4192 16.4447C18.2524 17.6323 21.0849 18.8215 23.9181 20.0091C24.5021 20.2539 25.0906 20.4903 25.6726 20.7388C25.9764 20.8685 26.2716 20.8664 26.5729 20.7439C28.1656 20.0963 29.7582 19.4486 31.3511 18.8015C33.9904 17.7294 36.6306 16.6592 39.2691 15.5854C41.2326 14.7863 43.1935 13.9821 45.1562 13.1816C46.1682 12.7689 47.1816 12.359 48.1947 11.9486C48.4022 11.8645 48.4796 11.9062 48.4896 12.1101C48.5052 12.4259 48.3735 12.6777 48.0626 12.8421C47.5571 13.1094 47.0069 13.2945 46.474 13.5105C44.2454 14.4139 42.013 15.3098 39.7823 16.2089C36.5444 17.5139 33.3069 18.8196 30.069 20.1245C29.055 20.5332 28.0419 20.9434 27.0252 21.3467C26.7058 21.4734 26.4961 21.6562 26.501 21.9877C26.5026 22.0929 26.4848 22.1983 26.4851 22.3036C26.4959 26.9175 26.5077 31.5314 26.5194 36.1651ZM14.6177 25.3711C14.6188 27.4306 14.6197 29.4901 14.6213 31.5496C14.6215 31.8324 14.6355 31.8394 14.9335 31.723C15.4498 31.5214 15.9654 31.3184 16.4822 31.1177C18.087 30.4946 19.6924 29.873 21.2971 29.2496C22.6231 28.7345 23.9455 28.212 25.2757 27.7056C25.6146 27.5766 25.7541 27.3929 25.751 27.0571C25.7359 25.3938 25.7352 23.7302 25.7533 22.0669C25.7573 21.6929 25.5968 21.4801 25.2238 21.3352C24.5847 21.0869 23.9567 20.8162 23.3254 20.5523C20.5243 19.3816 17.7238 18.2097 14.9224 17.0394C14.8375 17.0039 14.7541 16.9566 14.65 16.9609C14.6397 16.9805 14.6228 16.9975 14.6227 17.0145C14.6203 19.7868 14.619 22.5592 14.6177 25.3711Z" fill="black"/>
<path d="M35.6381 30.0045C35.7536 30.2324 35.7928 30.456 35.7917 30.6915C35.7863 31.8726 35.795 33.0538 35.7851 34.2348C35.7811 34.7045 35.6472 35.1481 35.3397 35.5407C35.1422 35.7929 34.888 35.9734 34.5496 36.0558C34.196 36.1419 33.898 36.0238 33.7394 35.7303C33.5874 35.4488 33.5605 35.1444 33.5596 34.8418C33.5559 33.6543 33.5235 32.4659 33.5954 31.2797C33.6287 30.7309 33.8539 30.2387 34.3523 29.8758C34.5415 29.7379 34.7626 29.6599 35.0016 29.635C35.3128 29.6026 35.4989 29.7635 35.6381 30.0045ZM34.3283 31.7139C34.3281 32.6177 34.3264 33.5215 34.329 34.4253C34.3295 34.5761 34.3181 34.7282 34.358 34.8778C34.3841 34.9754 34.4001 35.0874 34.5337 35.105C34.6585 35.1214 34.7648 35.0605 34.8399 34.9723C34.9707 34.8187 35.0121 34.6376 35.0139 34.4505C35.0184 33.9953 35.0179 33.5401 35.0176 33.0849C35.0172 32.3592 35.018 31.6336 35.0113 30.9079C35.0101 30.7854 35.0027 30.628 34.8284 30.606C34.6629 30.5851 34.5359 30.6841 34.4633 30.8201C34.4349 30.8733 34.415 30.9309 34.3989 30.9882C34.3356 31.214 34.3418 31.4458 34.3283 31.7139Z" fill="black"/>
<path d="M31.5145 34.6561C31.522 34.7859 31.4957 34.8986 31.5355 35.0071C31.8279 35.0072 31.8279 35.0072 31.8271 35.2641C31.8267 35.3895 31.8205 35.5151 31.828 35.64C31.8364 35.7784 31.7997 35.8847 31.6409 35.9415C31.5264 35.9825 31.5128 36.0752 31.5134 36.173C31.5148 36.4104 31.5056 36.6481 31.5142 36.8853C31.5195 37.0319 31.4601 37.1245 31.303 37.1706C31.2257 37.1933 31.151 37.2232 31.0758 37.2513C30.7918 37.3572 30.7461 37.3298 30.7448 37.0475C30.7437 36.8055 30.7446 36.5635 30.7446 36.3042C30.5036 36.3239 30.3335 36.4223 30.1502 36.4836C29.9837 36.5393 29.8204 36.6026 29.6542 36.6594C29.4653 36.7239 29.4161 36.694 29.4066 36.5122C29.3814 36.0264 29.4761 35.5555 29.6114 35.0866C29.95 33.9123 30.2783 32.7357 30.6083 31.5595C30.6814 31.2986 31.0787 31.0203 31.3844 31.023C31.4568 31.0236 31.4969 31.0567 31.5057 31.1152C31.5144 31.1737 31.514 31.2335 31.514 31.2928C31.5145 32.4075 31.5144 33.5223 31.5145 34.6561ZM30.2007 35.5332C30.2905 35.5028 30.3783 35.4656 30.4706 35.4433C30.6701 35.3952 30.7604 35.2973 30.7475 35.1017C30.7298 34.8328 30.7444 34.5623 30.7463 34.2924C30.7484 34.0014 30.7326 33.7104 30.7547 33.4175C30.6075 33.866 30.4797 34.3156 30.3601 34.7669C30.2931 35.0197 30.1759 35.2632 30.2007 35.5332Z" fill="black"/>
<path d="M42.8684 19.1853C43.0301 18.7628 43.2422 18.3909 43.6837 18.1653C44.2215 17.8905 44.5859 18.0073 44.7944 18.5234C44.8883 18.7556 44.9214 18.9988 44.9223 19.2428C44.9269 20.3773 44.9363 21.512 44.9195 22.6464C44.9116 23.1816 44.7639 23.6914 44.3778 24.1244C44.2169 24.3048 44.01 24.4303 43.7713 24.5135C43.404 24.6416 43.1016 24.5313 42.921 24.2132C42.7726 23.9519 42.7395 23.6679 42.7411 23.3855C42.7478 22.1327 42.6846 20.8793 42.7755 19.6274C42.7859 19.4841 42.8335 19.343 42.8684 19.1853ZM43.1362 21.6871C43.1365 22.2214 43.136 22.7557 43.1374 23.2899C43.1378 23.4414 43.1429 23.5917 43.1886 23.7408C43.3107 24.1392 43.6135 24.2373 43.9841 23.9809C44.3432 23.7324 44.4896 23.3784 44.5065 22.9918C44.5604 21.7594 44.5386 20.5262 44.5187 19.2934C44.5165 19.1552 44.5076 19.018 44.4644 18.8823C44.3177 18.4225 43.9815 18.3358 43.5811 18.6601C43.5377 18.6953 43.5007 18.7377 43.4661 18.7802C43.2455 19.051 43.1443 19.3583 43.1411 19.6886C43.1346 20.3416 43.1372 20.9946 43.1362 21.6871Z" fill="black"/>
<path d="M42.1169 20.8633C42.0443 20.9487 41.9634 21.0062 41.8608 20.9682C41.7565 20.9296 41.7918 20.8316 41.7915 20.7565C41.7905 20.4461 41.7869 20.1352 41.6748 19.8376C41.5762 19.5759 41.3801 19.5075 41.0997 19.6242C40.6505 19.8112 40.5357 20.1783 40.4724 20.566C40.3941 21.0448 40.4339 21.5278 40.4301 22.0089C40.4241 22.7744 40.4262 23.54 40.4337 24.3055C40.4358 24.5222 40.4533 24.7412 40.5603 24.9434C40.6543 25.1211 40.8036 25.1823 41.0157 25.1262C41.3097 25.0485 41.4838 24.857 41.6032 24.6196C41.7452 24.3371 41.7768 24.0346 41.7874 23.7306C41.7953 23.5064 41.7865 23.2818 41.7916 23.0576C41.7946 22.928 41.8962 22.8638 42.0245 22.8622C42.1597 22.8606 42.1542 22.9682 42.1557 23.0533C42.1638 23.5087 42.161 23.9624 42.0385 24.4101C41.9298 24.8075 41.7262 25.1483 41.3659 25.41C41.2819 25.471 41.1841 25.531 41.2163 25.6657C41.4294 25.6663 41.6312 25.6908 41.6872 25.9253C41.7573 26.2197 41.6317 26.4589 41.4185 26.6652C41.2806 26.7986 41.0945 26.8728 40.8903 26.9017C40.6431 26.9366 40.4471 26.7817 40.4587 26.5617C40.463 26.4805 40.5085 26.4241 40.5937 26.3973C40.6659 26.3747 40.7064 26.4164 40.733 26.4668C40.8373 26.6643 40.9938 26.6256 41.1574 26.5406C41.3347 26.4485 41.3991 26.2939 41.4186 26.1253C41.4323 26.0062 41.3537 25.9242 41.2199 25.9426C41.0367 25.9678 40.9677 25.91 40.9828 25.7544C40.9948 25.631 40.9254 25.592 40.7958 25.5964C40.4824 25.6072 40.2998 25.454 40.201 25.2055C40.1141 24.9868 40.0546 24.7635 40.055 24.5291C40.0568 23.3544 40.0529 22.1797 40.0598 21.005C40.062 20.6204 40.1239 20.2411 40.3276 19.8938C40.5133 19.5773 40.7541 19.3076 41.1471 19.1738C41.5208 19.0465 41.823 19.1402 41.9631 19.4692C42.152 19.913 42.1997 20.3772 42.1169 20.8633Z" fill="black"/>
<path d="M38.6907 21.5839C38.8706 22.5965 39.0483 23.5921 39.2264 24.5876C39.3032 25.0172 39.3809 25.4468 39.4587 25.8763C39.4646 25.9088 39.4775 25.9404 39.482 25.9729C39.5009 26.1114 39.3921 26.161 39.2733 26.1885C39.132 26.2213 39.1181 26.1201 39.1014 26.035C39.0443 25.7426 38.9825 25.4508 38.9371 25.157C38.9159 25.0196 38.8576 24.9847 38.7173 25.0391C38.3568 25.1788 37.9954 25.3168 37.6336 25.4539C37.5313 25.4927 37.5007 25.5624 37.4868 25.6559C37.4321 26.0218 37.37 26.3868 37.3071 26.7517C37.2972 26.8092 37.2806 26.871 37.2462 26.9189C37.1933 26.9925 37.1131 27.0617 37.0072 27.0203C36.9086 26.9817 36.9599 26.8944 36.9704 26.8256C37.1236 25.8202 37.274 24.8145 37.4315 23.8097C37.5645 22.9609 37.7063 22.1132 37.8429 21.2648C37.8702 21.0953 37.9001 20.9255 37.9127 20.7549C37.9264 20.5693 38.0159 20.4499 38.2159 20.3824C38.4199 20.3135 38.4722 20.3325 38.5076 20.5318C38.5687 20.8767 38.6283 21.2218 38.6907 21.5839ZM38.7323 23.9701C38.5632 23.0447 38.3941 22.1194 38.225 21.1941C38.2119 21.1941 38.1988 21.1942 38.1857 21.1943C37.9842 22.4731 37.7828 23.7518 37.5747 25.0728C37.8278 24.9752 38.03 24.8963 38.2329 24.8191C38.8479 24.5852 38.848 24.5855 38.7323 23.9701Z" fill="black"/>
<path d="M35.9787 24.8119C35.7251 25.0357 35.4271 25.1693 35.1142 25.2755C34.9523 25.3304 34.8907 25.4099 34.893 25.5689C34.9029 26.2548 34.897 26.9408 34.8969 27.6268C34.8969 27.749 34.8892 27.8688 34.7396 27.928C34.6299 27.9715 34.5488 27.9559 34.5347 27.8344C34.5286 27.7821 34.5305 27.729 34.5305 27.6763C34.5315 25.836 34.5356 23.9957 34.5299 22.1554C34.5292 21.9405 34.6049 21.8095 34.8368 21.7338C35.08 21.6544 35.3103 21.5444 35.5508 21.4578C35.9675 21.3079 36.2572 21.428 36.4112 21.8012C36.4863 21.9833 36.5122 22.1728 36.525 22.3634C36.5628 22.9304 36.5809 23.4971 36.4269 24.0554C36.3497 24.3356 36.2064 24.5857 35.9787 24.8119ZM36.1115 23.9524C36.1976 23.4882 36.1863 23.0201 36.1688 22.553C36.1625 22.3837 36.1386 22.2108 36.068 22.0494C35.9884 21.8678 35.8548 21.8037 35.648 21.863C35.4653 21.9155 35.2926 21.9951 35.1104 22.049C34.9486 22.0969 34.902 22.187 34.9026 22.3319C34.9061 23.1229 34.9001 23.9139 34.8998 24.705C34.8998 24.7666 34.8747 24.8389 34.9506 24.8847C35.6376 24.71 35.963 24.4695 36.1115 23.9524Z" fill="black"/>
<path d="M32.6497 25.0448C32.8127 25.1604 32.9532 25.2835 33.1186 25.368C33.8949 25.7646 34.0164 26.4041 33.9475 27.1111C33.9113 27.4816 33.8 27.8382 33.5847 28.1616C33.4123 28.4204 33.1641 28.6032 32.8406 28.698C32.5657 28.7786 32.322 28.7096 32.1859 28.4943C31.9477 28.1173 31.9331 27.6999 31.9525 27.2827C31.958 27.1658 32.0689 27.0897 32.1997 27.096C32.3348 27.1026 32.3139 27.2138 32.3155 27.297C32.3196 27.5143 32.3006 27.7329 32.3652 27.9466C32.4657 28.2791 32.7014 28.3644 33.0357 28.1907C33.1818 28.1149 33.2869 28.0067 33.36 27.8732C33.629 27.3818 33.6593 26.872 33.4936 26.3517C33.4373 26.175 33.3012 26.0404 33.1378 25.9316C32.9538 25.809 32.7628 25.6948 32.5789 25.5722C32.2251 25.3365 32.0345 25.012 31.9979 24.6286C31.951 24.1387 31.989 23.6538 32.2087 23.1913C32.3746 22.8423 32.6296 22.5751 33.0328 22.4287C33.3464 22.3148 33.5869 22.3788 33.7515 22.6373C33.9455 22.9418 33.9735 23.2763 33.9529 23.6154C33.946 23.7294 33.872 23.828 33.7292 23.8186C33.5859 23.8092 33.607 23.6879 33.5995 23.6006C33.5837 23.4171 33.5928 23.2327 33.5103 23.0559C33.3968 22.8127 33.2571 22.7564 32.9918 22.8581C32.8059 22.9293 32.6714 23.0455 32.5841 23.2063C32.3249 23.6837 32.2853 24.18 32.427 24.6904C32.4631 24.8203 32.5369 24.935 32.6497 25.0448Z" fill="black"/>
<path d="M30.2408 26.3629C30.4596 26.2766 30.6612 26.1923 30.8674 26.118C30.9605 26.0844 31.0891 25.9845 31.153 26.1192C31.2103 26.2402 31.1932 26.389 31.028 26.4614C30.8018 26.5605 30.5695 26.6486 30.3396 26.7412C30.3262 26.7467 30.3112 26.7491 30.2975 26.7542C29.9569 26.8793 29.9562 26.8794 29.9558 27.2157C29.955 27.8296 29.954 28.4435 29.9565 29.0573C29.9568 29.133 29.9308 29.2162 30.0206 29.3059C30.2281 29.2289 30.4442 29.1495 30.6595 29.0686C30.8167 29.0095 30.9712 28.9442 31.1304 28.8899C31.2135 28.8617 31.3189 28.786 31.3868 28.8929C31.4517 28.9951 31.4439 29.113 31.3502 29.2065C31.3128 29.2439 31.2541 29.2678 31.2006 29.2887C30.7519 29.4636 30.3029 29.6377 29.8525 29.809C29.6431 29.8887 29.5834 29.8553 29.5846 29.6494C29.5959 27.7684 29.6107 25.8874 29.6219 24.0063C29.6227 23.8754 29.6889 23.8022 29.8194 23.7505C30.2601 23.5761 30.6964 23.3931 31.1374 23.2193C31.2283 23.1835 31.3499 23.0844 31.4241 23.2206C31.489 23.3397 31.4667 23.4777 31.3246 23.5526C31.1657 23.6363 30.9927 23.6992 30.8243 23.7683C30.5951 23.8623 30.3657 23.9557 30.1342 24.045C30.0274 24.0862 29.9635 24.1506 29.9632 24.2546C29.961 24.9543 29.9602 25.6539 29.9606 26.3536C29.9606 26.3772 29.9776 26.4009 29.9855 26.4213C30.0847 26.4454 30.1503 26.3908 30.2408 26.3629Z" fill="black"/>
<path d="M32.9787 35.6926C32.9859 35.9228 32.9809 36.1399 32.9892 36.3566C32.9949 36.5045 32.9213 36.5861 32.7703 36.6376C32.2578 36.8125 32.2456 36.9278 32.2526 36.3309C32.2531 36.2848 32.2523 36.2388 32.2523 36.1927C32.2521 35.8812 32.5285 35.6331 32.8802 35.6338C32.9109 35.6339 32.9415 35.6634 32.9787 35.6926Z" fill="black"/>
<defs>
<filter id="filter0_d_1_553" x="0" y="0" width="60.6032" height="58.0684" filterUnits="userSpaceOnUse" color-interpolation-filters="sRGB">
<feFlood flood-opacity="0" result="BackgroundImageFix"/>
<feColorMatrix in="SourceAlpha" type="matrix" values="0 0 0 0 0 0 0 0 0 0 0 0 0 0 0 0 0 0 127 0" result="hardAlpha"/>
<feOffset dy="4"/>
<feGaussianBlur stdDeviation="2"/>
<feComposite in2="hardAlpha" operator="out"/>
<feColorMatrix type="matrix" values="0 0 0 0 0 0 0 0 0 0 0 0 0 0 0 0 0 0 0.25 0"/>
<feBlend mode="normal" in2="BackgroundImageFix" result="effect1_dropShadow_1_553"/>
<feBlend mode="normal" in="SourceGraphic" in2="effect1_dropShadow_1_553" result="shape"/>
</filter>
</defs>
</svg>
